/* XPM */
static char *xpm_[] = {
/* columns rows colors chars-per-pixel */
"32 32 203 2 ",
"   c #020101",
".  c #0C0001",
"X  c #000B00",
"o  c #01010A",
"O  c #0A0109",
"+  c #140000",
"@  c #1B0000",
"#  c #001400",
"$  c #240000",
"%  c #2A0000",
"&  c #320000",
"*  c #3A0000",
"=  c #410000",
"-  c #1C7500",
";  c #2C6E00",
":  c #257700",
">  c #2C7400",
",  c #247C00",
"<  c #2C7A00",
"1  c #327202",
"2  c #42611D",
"3  c #DC3F1C",
"4  c #E73C0C",
"5  c #EC3D0B",
"6  c #EB3B09",
"7  c #F53504",
"8  c #F53907",
"9  c #F53709",
"0  c #FA360C",
"q  c #F53A0B",
"w  c #FB3A0A",
"e  c #FB3704",
"r  c #FD3911",
"t  c #F13B13",
"y  c #E03F22",
"u  c #BB4E2B",
"i  c #BB4D33",
"p  c #BA4B38",
"a  c #BB5233",
"s  c #B8522C",
"d  c #DC470E",
"f  c #D6441C",
"g  c #EB410D",
"h  c #E94007",
"j  c #CB4922",
"k  c #C84926",
"l  c #D44422",
"z  c #DB4423",
"x  c #D84925",
"c  c #D54A21",
"v  c #C1512C",
"b  c #C24D37",
"n  c #C0513D",
"m  c #E14223",
"M  c #F9532C",
"N  c #F7552C",
"B  c #EF5535",
"V  c #E5593F",
"C  c #F45433",
"Z  c #F3533A",
"A  c #FC5533",
"S  c #D5623D",
"D  c #DF6139",
"F  c #DC5E4A",
"G  c #D55B49",
"H  c #D45A54",
"J  c #DC5954",
"K  c #E35444",
"L  c #EB5544",
"P  c #EB5841",
"I  c #E4534E",
"U  c #EA554B",
"Y  c #E45A4A",
"T  c #E25653",
"R  c #E55954",
"E  c #E85855",
"W  c #F45247",
"Q  c #C9614A",
"!  c #C1694B",
"~  c #D66043",
"^  c #CC6555",
"/  c #D16454",
"(  c #6CBD22",
")  c #73BE2F",
"_  c #78BC29",
"`  c #72BD32",
"'  c #7ABD30",
"]  c #65C605",
"[  c #6BC606",
"{  c #66CD05",
"}  c #6BC60B",
"|  c #66CA0D",
" . c #6BCA0C",
".. c #69C609",
"X. c #70CB0C",
"o. c #6CD00E",
"O. c #6CC611",
"+. c #65C914",
"@. c #6BCA13",
"#. c #6ECB1C",
"$. c #66C719",
"%. c #71CB13",
"&. c #72C517",
"*. c #6FC22C",
"=. c #72C22C",
"-. c #78B64A",
";. c #86B744",
":. c #FF8D4B",
">. c #FF8B43",
",. c #FC934C",
"<. c #F9984E",
"1. c #F4944C",
"2. c #FF8B52",
"3. c #E89D57",
"4. c #FC9552",
"5. c #F59A54",
"6. c #FD9A54",
"7. c #F7995C",
"8. c #F69556",
"9. c #E6A15D",
"0. c #DE9E63",
"q. c #D69E74",
"w. c #D99E7C",
"e. c #E59664",
"r. c #E49B64",
"t. c #EB9B64",
"y. c #E59C6B",
"u. c #EA9C6A",
"i. c #E79768",
"p. c #F49562",
"a. c #F29768",
"s. c #E39C74",
"d. c #DCA376",
"f. c #D5A279",
"g. c #D7A075",
"h. c #CFA672",
"j. c #E7A166",
"k. c #ABFF46",
"l. c #ADFF4C",
"z. c #A5FF44",
"x. c #B1FF4D",
"c. c #ACFF52",
"v. c #AEFF5C",
"b. c #B2FF52",
"n. c #B5FE5D",
"m. c #BBF96B",
"M. c #B6F969",
"N. c #B9F777",
"B. c #C5F36E",
"V. c #C8EE74",
"C. c #C3F376",
"Z. c #D1E977",
"A. c #D3BA9C",
"S. c #D5B69C",
"D. c #FF95A3",
"F. c #FF9AA4",
"G. c #FF96AB",
"H. c #FF9AAC",
"J. c #F79FAF",
"K. c #FF97B3",
"L. c #FF9AB4",
"P. c #FF9FBB",
"I. c #F29EBF",
"U. c #DEABBA",
"Y. c #DDABB7",
"T. c #DBB1B1",
"R. c #E8AEA1",
"E. c #FCA1AF",
"W. c #F6A0AD",
"Q. c #EAA6BE",
"!. c #E2ACBC",
"~. c #EBA9BB",
"^. c #E4A8B9",
"/. c #FAA1B4",
"(. c #F7A6BD",
"). c #E1B1BD",
"_. c #C7EA89",
"`. c #CDE492",
"'. c #DDABC1",
"]. c #E9A7C6",
"[. c #E5ABC6",
"{. c #F8A3C3",
"}. c #DFFFC4",
"|. c #DDFEDA",
" X c #FFE5C3",
".X c #FFEFCF",
"XX c #FFE6CB",
"oX c #E3FEC4",
"OX c #EBFFC3",
"+X c #FFF2CD",
"@X c #FFEAD4",
"#X c #FFECDB",
"$X c #F4EEDE",
"%X c #EEF0DB",
"&X c #FFF0D8",
"*X c #EDEEE8",
"=X c #FFECE6",
"-X c #FDEEEA",
";X c #F6E9E3",
":X c #EEF2E4",
">X c #E8F8E6",
",X c #F3F3E3",
"<X c #F8F4EB",
/* pixels */
"{ ..b.x. .o.k.l.{ *.X           o           >X.XS N N K P.^.,X|.",
" . .l.x.....c.v.( ;.+ % $ $ $ $ $ $ $ % $ @ <X#XQ P L R H.W.-X,X",
"l.l.....l.n.: 1 # + a l l f x l x l z l z n + . (.K.K.D.I R E.Q.",
"c.c.@.@.c.M.; 2 + = 3 q q q w w 7 w e w 0 m * $ Q.{.P.D.E I G.L.",
"{ +., , $.) # + i m t 9 q 9 q q w 7 w e 8 4 z i % % H R D.F.T I ",
"{ @., : #.` # @ p y 5 q w q w 8 9 w e e w 5 6 k $ @ ^ H L.K.U Z ",
"l.l.@.#.c.N.X   @ = f 8 q q 9 w w 7 w e 0 g :.t.+ . + $ (.G.L C ",
"b.b. .&.m._.X     $ x w 9 w 9 w 0 w w 9 5 d ,.j.$ + + @ ~././ S ",
"O.O.b.m.# X       $ l 0 0 0 q q r 0 r 6 2.4.<.5.a.i.j.f.@ + &X+X",
"O.@.x.m.X         @ i l z l l l l z t g :.,.,.4.p.u.0.h..   :X,X",
"b.l.X.' X         . @ $ $ $ $ $ $ = f 8 6 6 6 f * @ +   >X:XY.^.",
"l.z. .=.# X   . + .     . + + +   @ a l z z f i $ O     *X-X!.~.",
"{  .l.c.=.-.X . f.f.+ . w.y.i.d.+ . @ $ $ $ $ @ .   O . [.!.=X$X",
"{ ] c.l.@.` X + r.r.+ + y.8.6.e.+   + @ + .         . @ [.U.=X,X",
"l.x.} } c.N.X + y.r.+ . 0.6.1.y.+ . w.e.j.q..     O '.!.-X-XU.~.",
"V.B._ ' C.`.  + u.t.@ @ 9.1.6.i.@ $ i.6.,.r.+   X X S.A.oX}.A.R.",
"R.S.OXoXA.T.. + i.5.3.9.3.5.4.8.t.e.7.6.,.t.+ X -.` B.B.) =.C.Z.",
"Q.!.=X=XY.~.$ $ w.t.4.,.<.5.1.4.,.7.i.i.u.f.. X ) O.b.c.@.| l.b.",
"<X;X).!.-X#X^ ^ $ % j d ,.<.6.4.6.t.@ . . .   X C.n.< < c.l. . .",
"*X-XU.!.@XXXG J & & b k p.r.r.y.r.g..   . . .   _.N.> < c.k.#.$.",
"].'.-X@X! ~ F.F.G Q & $ + + + . + .   . d.r.r.g.+ X N.c.} %.- , ",
"].U.#X XD P H.G.P G @ . @ @           @ p.>.4.a.@ X m.k.[ O., , ",
":X#X! V B K H.H.L F @ @ p p @       o @ j 6 4 k @ X ) [ x.x.$.$.",
"+X XG W Z L F.F.E H $ $ n b % + + +   @ j 5 g k @ X `  .x.x. .| ",
"~ F D.D.L Z P I D.K.{.^.% % y.t.u.w.+ @ p.:.,.t.+ X N.c.@.[ x.x.",
"A L K.P.K C A L D.P.I.[.. + t.,.4.e.@ + q.j.r.h.. # m.c.@. .l.x.",
"M P K.G.U C B B L H %   O + i.6.4.i.@   . . +   _.m.O. .c.c...[ ",
"V Y H.H.T Y K Y Y / % @ $ % s.i.u.s.% @     X # m.l.X.[ c.c. .[ ",
"F.F.J T G.G.P.E.% & u c l v % @ + % v a @   _.m.&.} k.x...@.l.x.",
"~.E.J T H.K.H.J.+ @ u f l i @     @ i s + # M.l.}  .x.l.O.@.l.b.",
",X=X/.H.T L L / #X%X@ $ $ @ .       @ + _.M.%. .x.l... .l.l.%.] ",
"|.,X].L.U N M S .X>X    o o o o     o X N.c.{ { x.l.| | c.x.] { "
};
