/* XPM */
static char *xpm_[] = {
/* columns rows colors chars-per-pixel */
"32 32 204 2 ",
"   c #020201",
".  c #0B0001",
"X  c #000C00",
"o  c #0E000A",
"O  c #00010A",
"+  c #130001",
"@  c #1B0000",
"#  c #001300",
"$  c #001900",
"%  c #220000",
"&  c #2D0000",
"*  c #340000",
"=  c #2A7600",
"-  c #257B00",
";  c #2C7800",
":  c #227000",
">  c #346D14",
",  c #2F7009",
"<  c #326322",
"1  c #76500F",
"2  c #674F1F",
"3  c #774D13",
"4  c #7B4C16",
"5  c #764C1C",
"6  c #7D4D1B",
"7  c #765017",
"8  c #7B5115",
"9  c #75521B",
"0  c #7B511C",
"q  c #6F4E23",
"w  c #6B4F2B",
"e  c #734E23",
"r  c #764E25",
"t  c #6D522C",
"y  c #6F5323",
"u  c #745224",
"i  c #7B5023",
"p  c #73512B",
"a  c #79542A",
"s  c #7A582A",
"d  c #714E32",
"f  c #6D5435",
"g  c #775533",
"h  c #804F0D",
"j  c #824D14",
"k  c #804E19",
"l  c #835118",
"z  c #B57432",
"x  c #B5752D",
"c  c #DB5C39",
"v  c #F6532C",
"b  c #FA4F33",
"n  c #E9583B",
"m  c #F65333",
"M  c #FA5332",
"N  c #F95239",
"B  c #D0643B",
"V  c #D46A2C",
"C  c #BE684D",
"Z  c #BF6A52",
"A  c #D25E4A",
"S  c #DA5C46",
"D  c #CF5F54",
"F  c #D45B56",
"G  c #DD5A55",
"H  c #E45443",
"J  c #EC5443",
"K  c #EB5549",
"L  c #EB5949",
"P  c #E95647",
"I  c #E85454",
"U  c #E55554",
"Y  c #F15348",
"T  c #C6644E",
"R  c #C46B4D",
"E  c #D46144",
"W  c #DB6148",
"Q  c #C26953",
"!  c #C86654",
"~  c #D36153",
"^  c #D96151",
"/  c #6DBB2C",
"(  c #6EBF24",
")  c #71BD25",
"_  c #73BB2C",
"`  c #78BE2A",
"'  c #7FBB25",
"]  c #5FCF07",
"[  c #65CB05",
"{  c #69CB06",
"}  c #67C70C",
"|  c #6CC60B",
" . c #66CB0A",
".. c #6BCA0C",
"X. c #6BC607",
"o. c #71C70D",
"O. c #70CB0C",
"+. c #6BC613",
"@. c #66CB12",
"#. c #6CCB12",
"$. c #6AC81A",
"%. c #71C817",
"&. c #65D008",
"*. c #6CC324",
"=. c #72C12B",
"-. c #78C32B",
";. c #77C031",
":. c #7AB844",
">. c #7AB645",
",. c #EC9B5A",
"<. c #E39F54",
"1. c #DC9E68",
"2. c #DD9E73",
"3. c #E69C63",
"4. c #E39C68",
"5. c #DBA168",
"6. c #DAA474",
"7. c #D7A278",
"8. c #E1A06A",
"9. c #ACFF4D",
"0. c #A7FF49",
"q. c #B3FF4D",
"w. c #ADFF52",
"e. c #AEFF58",
"r. c #B2FF53",
"t. c #B3FE5B",
"y. c #B3FC62",
"u. c #B9F76D",
"i. c #B7F76C",
"p. c #B9F772",
"a. c #BAF775",
"s. c #CFEF5E",
"d. c #CDF05E",
"f. c #C3EE6A",
"g. c #C8F26A",
"h. c #CCEC72",
"j. c #DDE173",
"k. c #C6F576",
"l. c #FF9A9D",
"z. c #D6B99C",
"x. c #D6B798",
"c. c #E8AF9E",
"v. c #FF95A4",
"b. c #FF9AA4",
"n. c #FF96AB",
"m. c #FF9AAD",
"M. c #FF96B1",
"N. c #FF9CB2",
"B. c #FD9DB8",
"V. c #DAB5A6",
"C. c #DCACB5",
"Z. c #D7ABBF",
"A. c #DCADB9",
"S. c #D7ACB5",
"D. c #DEB1BD",
"F. c #E3AFA2",
"G. c #F8A2AE",
"H. c #E2ADB5",
"J. c #EAA5BC",
"K. c #E4ACBC",
"L. c #EAAABD",
"P. c #E6A7BA",
"I. c #FCA1B3",
"U. c #F7A4B8",
"Y. c #E2B0BC",
"T. c #E4B0A5",
"R. c #BCF081",
"E. c #C6EE8A",
"W. c #C3ED85",
"Q. c #D1E88E",
"!. c #C5EE90",
"~. c #CAF187",
"^. c #EEFEB8",
"/. c #DEB1C5",
"(. c #EBA5C1",
"). c #E4AAC2",
"_. c #EDA9C2",
"`. c #E9AAC8",
"'. c #E0B0C0",
"]. c #F2A3C3",
"[. c #DCFFCF",
"{. c #DAFFDB",
"}. c #FFE5CB",
"|. c #FFE8C7",
" X c #E5FEC5",
".X c #E6FFC9",
"XX c #E8FFC9",
"oX c #FFECD6",
"OX c #FFEBDA",
"+X c #FAE9DE",
"@X c #FDF2D5",
"#X c #F7F1DC",
"$X c #FCF3CC",
"%X c #EDEFE1",
"&X c #FCEBE5",
"*X c #FDECEB",
"=X c #F1EDE4",
"-X c #ECF3E5",
";X c #EFF6EB",
":X c #F3F4E3",
">X c #FDF1E5",
",X c #F2F4EA",
"<X c #F6F9EC",
"1X c #FFF3EC",
/* pixels */
"[ ..r.r. . .q.q...@.w.t. .[ r.h.T.).,X,X(.J.<X$XB m b J N.P.:X{.",
"{ X.r.w.@.} t.t.( / a.a./ =.i.Q.V.Z.<X,X).).-X@XT L K U b.G.+X:X",
"9.9.#.} 9.y.: , $ # X X # X X X . o     + .   . I.n.m.b.U G U.(.",
"9.w.*._ k.a.> < X   . . . . . . . . . . . .   . ).].(.U.D G v.M.",
" .*.$ X X X X X   . t a e a q q e e u u u f     o o o + @ & ^ J ",
" ._ X   X X X   . @ w e u u u u u u e q p t + .     @ @   @ W v ",
"r.p.X X E.E.X + 7.7..     . .       . + . + 6.7.+ @ Q Q @ @ S m ",
"r.p.X X p.p.X @ 4.3.@ . . . . .     . . . @ 1.1.+ @ ~ ~ @ @ Z E ",
"[ =.X X _ _ X + 8.,.3.6.e i 2.2.r t p p u u l e . @ B.B.@   #X@X",
"[ *.$ $ :.>.X + 5.,.,.3.j j 3.3.j 0 6 4 8 8 0 p . . `.`.. X ;X-X",
"w.e.=.:.# X X . i j j 4 0 4 j j 8 7 4 l 3 0 0 q . . . . -X,XA.(.",
"t.9.| =.$ X X X t u 5 0 0 0 8 1 7 7 4 4 0 9 p d % @   X -X&XK._.",
"[ X.9.w.( _ u.~.X + r 6 4 3 8 8 0 0 8 3 9 t . % T Z #X,XD.K.&X:X",
"{ ..0.9.X.#.0.y.$ X t r p s 7 0 6 5 u y 2 f @ & T C OX&XK.K.&X:X",
"9.9...X.q.0.$.$.i.W.X . . . u 3 6 a . . . @ ! Q }.OXH.Y.*X*X'.P.",
"h.k._ ` h.k./ _ g.j.@ @ @ @ d p p t X # X . z z ^. Xx.z..X.Xz.F.",
"F.z. XXXV.V..X^.x V B ! I._.@ . . X W.i.` ' s.d.) =.g.f.-.) f.h.",
"L.C.*X*X).K.OX}.A H S ! I.).+     X E.u._ ) y.w.} ..t.t.} ..0.r.",
":X>XS.D.&XOXC A m.N.& @ + .         X X X # , ; t.t.; = t.w.%.+.",
"#X>XC.C.OX}.A U v.B.+     O             O X > ; t.r.= = w.w.$.*.",
"J.C.>XoXQ A b.v.I F @             X       X R.t.| %.t.t.#.@.- - ",
"_.H.oX|.c K m.N.F ! @   . + . . .   .     X !.u.%.| 9.9. .@.- - ",
"=XoXR c n H m.U.% @   . 6.5.5 u u u u t .   X # i.w...| 9.9.+.$.",
"oX}.A J m J l.G.+ O   . 5.<.1 8 8 4 l r . X   X a.9...O.q.r... .",
"S F b.l.K N J D @     . i j 4 6 5 i 3 u   X X X =. .9.q.| | 9.0.",
"N K N.I.H M M n * @ . . f p p p g p g w   X X $ *. .9.9.o.o.0.0.",
"v H N.M.L m v m n ! @ .   . . .     . .   X :.*.e.w.#...9.9... .",
"n G m.m.G L H n m S @   . .   X X X X X X $ ) ..w.w.| ..9.9.+. .",
"m.b.U U n.n.I.b.J W oX,X/.Z.;X[.:._ u.i.;.=.t.9.....9.9.#.+.9.w.",
").I.G I m.N.N.b.~ C OX*XA.D.&X X` ..q.9.} } 9.9...| 9.w.+.+.w.9.",
"-X&Xm.v.I K K ~ }.OXH.C.1X&XA.z.f.q.} ..e.9.{ { q.q.....9.9... .",
"{.:XJ.n.Y M M E @X%XL.L.#X>XJ.c.h.q...@.w.w.&.[ q.q.X.[ r.r. .] "
};
