/* XPM */
static char *xpm_[] = {
/* columns rows colors chars-per-pixel */
"32 32 195 2 ",
"   c #020102",
".  c #0C0000",
"X  c #000B00",
"o  c #040109",
"O  c #090800",
"+  c #140000",
"@  c #1B0000",
"#  c #10000A",
"$  c #001300",
"%  c #001800",
"&  c #230000",
"*  c #2C0000",
"=  c #330000",
"-  c #3B0000",
";  c #400000",
":  c #1E7700",
">  c #346D08",
",  c #2D7203",
"<  c #237C00",
"1  c #367405",
"2  c #3B6325",
"3  c #465D25",
"4  c #436125",
"5  c #DD3A19",
"6  c #EB3B05",
"7  c #E93C0A",
"8  c #E63F09",
"9  c #F53503",
"0  c #FA3506",
"q  c #F43A06",
"w  c #FA3C06",
"e  c #F5360B",
"r  c #FB350B",
"t  c #F53A0C",
"y  c #FC3A0C",
"u  c #E73D17",
"i  c #FC3611",
"p  c #FC3A13",
"a  c #F73712",
"s  c #BA4F2D",
"d  c #B6512B",
"f  c #BB4C33",
"g  c #BC4E39",
"h  c #B55135",
"j  c #BE5033",
"k  c #BB513B",
"l  c #D4441C",
"z  c #DB431D",
"x  c #D6491E",
"c  c #C8481B",
"v  c #E54105",
"b  c #E5420C",
"n  c #EB4108",
"m  c #E64112",
"M  c #E3441C",
"N  c #C74A24",
"B  c #CB4A23",
"V  c #C24C2C",
"C  c #C64B28",
"Z  c #D54522",
"A  c #D64821",
"S  c #D34528",
"D  c #D94423",
"F  c #C0522F",
"G  c #C44C37",
"H  c #C25034",
"J  c #FB4F35",
"K  c #F95336",
"L  c #FF7E2A",
"P  c #E67E3F",
"I  c #DA5C44",
"U  c #D65B4D",
"Y  c #D75B53",
"T  c #E34F4B",
"R  c #E45643",
"E  c #EB5646",
"W  c #E4564B",
"Q  c #EB554B",
"!  c #E4584B",
"~  c #E25651",
"^  c #E45952",
"/  c #F25448",
"(  c #C3694F",
")  c #D46049",
"_  c #D86141",
"`  c #C66754",
"'  c #CD6558",
"]  c #6FB924",
"[  c #75BC2B",
"{  c #73BE30",
"}  c #6CC707",
"|  c #6CCA06",
" . c #6CC70A",
".. c #65CB0C",
"X. c #6ACA0B",
"o. c #67C704",
"O. c #6CD00C",
"+. c #65C512",
"@. c #6BCA12",
"#. c #6ACB18",
"$. c #68C718",
"%. c #71C818",
"&. c #70C707",
"*. c #6CC32E",
"=. c #72C125",
"-. c #73C32D",
";. c #6EC133",
":. c #7CB343",
">. c #FF8028",
",. c #E2813D",
"<. c #81B745",
"1. c #D88E5C",
"2. c #E98543",
"3. c #FF8E4B",
"4. c #FF914B",
"5. c #FF8F51",
"6. c #E3985F",
"7. c #FF9053",
"8. c #F39853",
"9. c #DF9C67",
"0. c #D39C76",
"q. c #DB9C74",
"w. c #DC9D79",
"e. c #EE9665",
"r. c #E49B64",
"t. c #E99D65",
"y. c #E49C6A",
"u. c #EA9C69",
"i. c #F19A64",
"p. c #F29569",
"a. c #F19C6B",
"s. c #E19D76",
"d. c #DDA067",
"f. c #CFA27A",
"g. c #D3A372",
"h. c #D5A47B",
"j. c #DAA17B",
"k. c #DDA477",
"l. c #E6A16D",
"z. c #E4A063",
"x. c #ABFF46",
"c. c #ADFF4E",
"v. c #A6FF4C",
"b. c #B1FF4D",
"n. c #B4FF4B",
"m. c #ACFF51",
"M. c #B2FF53",
"N. c #B2FE5B",
"B. c #B5FB6C",
"V. c #BBFB6D",
"C. c #B5FA66",
"Z. c #BAF874",
"A. c #C0ED6C",
"S. c #CFEF72",
"D. c #CAF174",
"F. c #FF939D",
"G. c #D9B79E",
"H. c #E6B19F",
"J. c #FF96A5",
"K. c #FF9AA5",
"L. c #FF9BAA",
"P. c #FF96B0",
"I. c #FF9AB3",
"U. c #FF9DB8",
"Y. c #DDAEBB",
"T. c #D8ADB7",
"R. c #D6B5A4",
"E. c #FEA3AF",
"W. c #E5B0A0",
"Q. c #E4ACB9",
"!. c #EBA9BD",
"~. c #E6A6B9",
"^. c #FEA4B4",
"/. c #F2A3BB",
"(. c #F4A3B3",
"). c #C4EA88",
"_. c #CAF08D",
"`. c #DEADC0",
"'. c #E1ABC3",
"]. c #E0B4C5",
"[. c #DCFFDE",
"{. c #FFE6C5",
"}. c #FEF2CA",
"|. c #FFEBD5",
" X c #FFEEDA",
".X c #E8F5DC",
"XX c #FDF1D3",
"oX c #F8F3DD",
"OX c #FDEBE4",
"+X c #F8EFE7",
"@X c #EEF3E3",
"#X c #ECF7E6",
"$X c #F3F3E4",
"%X c #F1F8E6",
"&X c #F4F4EA",
/* pixels */
"..X.M.M.X.O.c.M...*.$                       .XXX) K J / P.~.%X[.",
"X.@.c.c.o. .N.C.-.:.+ & & & & & & & & & & @ $X X' Q Q T L.^.OX%X",
"c.c. .| x.M., > $ + d x l Z Z S S S S S D g + . (.I.I.L.W U ^.~.",
"m.m.#.@.x.N.> 3 @ ; M w 9 y e e r i a p r u - & !./.U.J.^ W K.P.",
"..+.< < @.=.$ + f M t r y r r y r y e r r p 5 G & & Y ^ J.K.~ Q ",
"..$.< : #.[ $ & Z 0 0 r r r r 9 y r p y r 0 r Z & @ I E I.I.Q K ",
"M.m.$.@.x.V.X & Z r y p r i r y 9 w e t 9 w 9 A & & I E U.P.Q J ",
"M.b.X.@.C.).X & Z 0 e r r r w q q q t t w q w l & @ ` U L.L.U _ ",
"&.} m.B.$ X   & A 9 y e y q q q q w y y e y q A & . @ - Y Y {.}.",
"| } m.Z.X     @ j M t w 6 v v b v n 8 6 t 7 z h @ o   @ ` ( |.oX",
"M.c.X.{ X       @ - M 6 3.4.3.3.3.3.4.3.7 z - @ .   o .  X|.Q.~.",
"b.M.=.<.O .       & f B i.r.t.t.t.t.r.e.B f @       . . #X%XY.!.",
"| =.%   g.0.+ o o . @ & @ + @ @ @ + + + & @ .     . f.h.    &X$X",
"| ] X + t.i.& . o   o                         . + @ z.d.. o &X$X",
"x.Z.X + u.8.6.h..           o     o           + 0.t.8.9.+ o Y.!.",
"D.).  . q.a.r.h..                 o           + j.r.l.g.O X G.H.",
"W.R.%X#X. @ + +                                 + + + O :.[ A.S.",
"!.Y.+X@X      . + @ @ @                 + @ + + .     $ -.X.M.b.",
"$XOX`.].@X#X  + j.p.B s @             @ g C e.j.+   2 1 N.x. . .",
"$XOXY.T.@X.X@ * q.p.N F * + + + @ @ @ * H N e.q.* + 4 , N.x.%.$.",
"~.Q.OX%X  + s V * + & * k.r.y.y.r.t.y.s.* & + * f h . $ *.$.< < ",
"!.T.@X.X  & V V = @ . @ i.4.3.7.4.3.5.a.@ . @ = V j &   :.;.: < ",
".X%X    f.q.& - G f @ & c n b b b m m N & @ f V = & q.g.O $ -...",
"XXXX  + y.l.+ @ g g @ & c n 7 8 b b m N & @ g f @ + r.t.@ X [ | ",
"I ` @ + u.u.+ . @ @   + i.3.7.5.4.4.3.p.@ . @ @   + r.y.@ X Z.b.",
"J ! * @ w.q.+         . g.t.r.y.t.6.t.w.+ o o     . h.g.O $ V.M.",
"K R L.!.@ + .           . + + . . + + + .         O . O _.B.$...",
"R ^ K.^.@ .   . & * & @               . @ & & @     X $ B.v.@...",
"^.K.^ Y ^.'.# @ H z D k +   O     o   @ j Z S k @ X ).B.+.X.c.b.",
"~.(.Y ~ K.E.* = V l D g +   + @ @ + . @ f Z S h + $ V.m...X.b.n.",
"$XOXE.F.^ ! I ' * & & @   + 1.2.2.1.+ . @ & & + ).C.%. .c.c. .} ",
"[.$X/.J.E K K ) @   o     @ P L >.,.&         X Z.M.| } M.c.X.X."
};
