/* XPM */
static char *xpm_[] = {
/* columns rows colors chars-per-pixel */
"32 32 202 2 ",
"   c #020301",
".  c #0C0201",
"X  c #000C00",
"o  c #140000",
"O  c #1B0000",
"+  c #001400",
"@  c #001A00",
"#  c #240000",
"$  c #2B0000",
"%  c #330000",
"&  c #3C0000",
"*  c #2E6F00",
"=  c #257600",
"-  c #2D7500",
";  c #257A00",
":  c #2A7B00",
">  c #317800",
",  c #EB3E05",
"<  c #EA3D0B",
"1  c #E63F09",
"2  c #F63605",
"3  c #FB3606",
"4  c #F53A05",
"5  c #FB3906",
"6  c #F63609",
"7  c #FA360A",
"8  c #F5390A",
"9  c #F9390B",
"0  c #E93C14",
"q  c #FB3712",
"w  c #E23C24",
"e  c #B84F2F",
"r  c #B85031",
"t  c #CC4C1F",
"y  c #D4431E",
"u  c #DC431D",
"i  c #E6410C",
"p  c #EA400C",
"a  c #E74304",
"s  c #E74713",
"d  c #F14311",
"f  c #F3420E",
"g  c #C84926",
"h  c #D64624",
"j  c #D94521",
"k  c #D84429",
"l  c #C44D31",
"z  c #DE5F3A",
"x  c #E04121",
"c  c #F3542D",
"v  c #F35A2A",
"b  c #F9512D",
"n  c #ED563E",
"m  c #E5573A",
"M  c #F45333",
"N  c #FB5234",
"B  c #F75932",
"V  c #DD613B",
"C  c #BF654A",
"Z  c #DE5D44",
"A  c #D55E4C",
"S  c #DB5C48",
"D  c #CE5F58",
"F  c #DE5954",
"G  c #D85A5B",
"H  c #E45345",
"J  c #EC5446",
"K  c #E55B44",
"L  c #EC564B",
"P  c #EA5A49",
"I  c #E45453",
"U  c #E25659",
"Y  c #F25741",
"T  c #C4654D",
"R  c #C7684A",
"E  c #D56145",
"W  c #D8614D",
"Q  c #D46049",
"!  c #C86853",
"~  c #D66152",
"^  c #71BD1F",
"/  c #72BF23",
"(  c #74BC2C",
")  c #73BA34",
"_  c #5FCD0A",
"`  c #64CA06",
"'  c #66C50B",
"]  c #6BC60B",
"[  c #66CB0C",
"{  c #6BCA0B",
"}  c #69C705",
"|  c #71C80C",
" . c #60D105",
".. c #6CC613",
"X. c #66CB12",
"o. c #6CCA12",
"O. c #66C61B",
"+. c #6CC619",
"@. c #6BC91B",
"#. c #71C712",
"$. c #6DC424",
"%. c #76C129",
"&. c #6FC530",
"*. c #78B844",
"=. c #88B33F",
"-. c #81B342",
";. c #FF8B45",
":. c #FF8C4B",
">. c #FF8348",
",. c #EF974F",
"<. c #F4964B",
"1. c #FD944C",
"2. c #F49A4C",
"3. c #FA994D",
"4. c #F49747",
"5. c #FF8E52",
"6. c #E99B5D",
"7. c #F49652",
"8. c #FB9552",
"9. c #F59A51",
"0. c #F99A52",
"q. c #FB9659",
"w. c #DF9862",
"e. c #DC9B77",
"r. c #E39C65",
"t. c #EB9B64",
"y. c #E39B69",
"u. c #EB9E6C",
"i. c #EB9A6D",
"p. c #D2A36F",
"a. c #D5A476",
"s. c #E8A36E",
"d. c #AEFF47",
"f. c #ACFF4C",
"g. c #A5FF4B",
"h. c #B2FF4D",
"j. c #B6FF4A",
"k. c #ACFF52",
"l. c #AEFF5A",
"z. c #B2FF52",
"x. c #B1FE59",
"c. c #BDEF6A",
"v. c #B8FE62",
"b. c #B6F66D",
"n. c #BBF76C",
"m. c #BAFC69",
"M. c #B4FB6B",
"N. c #B9F773",
"B. c #C2F06C",
"V. c #CBEC72",
"C. c #C7F272",
"Z. c #FF999F",
"A. c #D4B99C",
"S. c #E1B39C",
"D. c #FF99A4",
"F. c #FF96AB",
"G. c #FF9AAB",
"H. c #FF97A4",
"J. c #FF97B1",
"K. c #FF9AB3",
"L. c #FF9EB8",
"P. c #DDADBA",
"I. c #DAADB6",
"U. c #DDB1BB",
"Y. c #E7AFA0",
"T. c #E7B2A2",
"R. c #E3AEBA",
"E. c #E9A9BD",
"W. c #E7A6B9",
"Q. c #FBA1B4",
"!. c #F6A3B5",
"~. c #E2B0BC",
"^. c #F8A2AF",
"/. c #CAEA87",
"(. c #C7F088",
"). c #FFE6BE",
"_. c #DCAFC3",
"`. c #DEB2C3",
"'. c #EAA6C2",
"]. c #E6AAC2",
"[. c #DCFFCE",
"{. c #DCFFD1",
"}. c #FFE4C6",
"|. c #FFE7C9",
" X c #E7FEC5",
".X c #FEF1CF",
"XX c #FFEBD4",
"oX c #FFECD9",
"OX c #FFE7D7",
"+X c #E2FFD0",
"@X c #F2F3DB",
"#X c #F5F3D3",
"$X c #DEFCE2",
"%X c #EFEFE3",
"&X c #FEEDE5",
"*X c #FDECEA",
"=X c #F3EFE3",
"-X c #EFF3E9",
";X c #F3F2E4",
":X c #FCF2E4",
">X c #F4F2EC",
",X c #F1FAE9",
/* pixels */
" .` j.j.[ [ f.d.{ ` k.z.' { z.V.T.E.@X@XE.'.-X.XE N M K G.E.;X$X",
"[ { d.h.] ' x.k.o.o.l.k.o.' z.C.A.I.&X:XP.R.oX|.~ L K F D.^.&X;X",
"k.k.{ } z.v.- : x.x.- > l.f.] (  X*XU.I.&XXXC A H.K.G.D.I F Q.E.",
"k.k.X...z.x.- : x.x.> * N.N.( *.[.-X_.R.oX}.W I G.L.F.H.I I H.G.",
"o.+.: ; +...l.k.[ { x.N.+ X X X     . # T ~ D.F.I H L I D.D.I J ",
"' +.: = @.{ f.k.$.( b./.o # # # # $ # % ! ! !.G.K b M L F.G.J b ",
"j.h.O.O.k.f.| ^ + X X o e h y h h y j l $ O O $ z v c H Q.K.J N ",
"j.j.[ X.f.k./ =.o # # & x 8 < i i 1 6 u & # # % R V Z F G.D.A E ",
"} { f.g.X.$.@ . e h h u 0 p ;.1.8.;.p 0 j h j l % $ Q.G.I W |..X",
"{ } f.g.` &.+ O h 7 3 9 9 i 1.<.2.8.i 9 7 6 6 h # O !.D.A T OX,X",
"z.z.` ` d.b.X # y 3 5 9 8 0 8.1.3.1.< 7 9 9 8 h # O D ~ }.oXR.].",
"z.k.` ] v./.o & 0 3 3 6 6 d >.:.:.>.8 7 3 4 8 j & % ! ! OX&XP.E.",
"#.] f.m.+ o r w q 7 7 9 9 6 f p i d 8 9 9 6 8 < u l % # E.P.:X@X",
"] | d.b.X # k q 7 9 6 6 7 9 2 2 6 6 9 6 3 6 8 6 2 y # . ].R.:X@X",
"z.d.{ ( X # k 6 4 4 4 5 3 7 6 9 9 6 6 2 5 3 9 6 5 u #   >X*XI.W.",
"V.B.%.) X # g i a , , 4 7 7 q 6 2 9 6 9 5 3 < i 1 t O   [. XA.T.",
"S.A. X+X  o t.1.;.;.< 8 9 7 7 9 7 9 3 3 7 < :.:.:.t.o X *.%.c.C.",
"R.U.&X>X  o r.<.1.;.s 1 < < < < p < 1 p < s ;.0.8.r.o X ( ' f.f.",
":X&XR.P.  . s.8.1.3.1.5.q.5.:.1.1.:.1.8.5.5.3.2.9.y.o X N.z.' { ",
":X&XR.R.O # e.t.0.<.2.,.q.q.1.3.8.2.2.9.7.8.2.9.r.a.. + n.h.+.@.",
"W.~.*XOX! C # # t.1.2.9.9.9.8.8.8.q.9.2.3.2.2.6.# . /.m.#.X.; = ",
"].~.OX}.V W O o y.0.<.2.<.<.8.8.q.q.<.<.3.4.2.r.o X b.f.} X.; = ",
"%XOXR z M S # O u.8.<.3.3.3.3.<.2.9.0.3.3.<.3.t.o X ( [ f.k.O.O.",
".X}.Q n M K & # e.y.u.t.7.1.<.3.9.2.3.7.6.t.r.p.. + $.[ f.f.X.[ ",
"E A D.H.n M K T # o o # u.1.3.0.0.7.9.t.# O o   -./ l.k.` } f.k.",
"N J K.L.m c B Z % O O # e.u.w.r.y.r.s.p.. X X + %.{ f.f.} } f.f.",
"b J J.F.K v c M m Z Z T $ o o o o O o   (.N.( %.k.f.{ { h.h.} [ ",
"J I G.G.S K m n M M V ! # .     X X X + M.f.' ] f.f.} | h.z.{ [ ",
"J.D.I I F.F.L.Z.Y m ).OX~.`.>X{.*.( n.m.+.[ f.d.[ [ d.d.#...f.f.",
"E.!.G U G.K.K.H.A R OX:XU.I.*X X%.{ d.f.{ { z.d.[ [ f.d.....f.f.",
"@X&X!.G.I J L ~ |.OXR.R.*X&X~.A.B.f.o.X.f.z.] { k.k.[ [ f.z.{ } ",
"{.@X].K.J N N E XX;X'.'.;X:XW.Y.V.z.X.[ z.d.{ { k.k._ ` z.z.} ` "
};
