/* XPM */
static char *xpm_[] = {
/* columns rows colors chars-per-pixel */
"32 32 164 2 ",
"   c #3F6707",
".  c #257700",
"X  c #2A7700",
"o  c #257900",
"O  c #297B00",
"+  c #B67532",
"@  c #B97334",
"#  c #DE5936",
"$  c #D75D38",
"%  c #D85E39",
"&  c #FA532D",
"*  c #F84F38",
"=  c #EE543F",
"-  c #E15C39",
";  c #F55232",
":  c #F95332",
">  c #F25A33",
",  c #F3553D",
"<  c #FC5239",
"1  c #CD6A23",
"2  c #D36A28",
"3  c #C56F35",
"4  c #BC6D4E",
"5  c #D25D46",
"6  c #D85E47",
"7  c #D65D48",
"8  c #DD594A",
"9  c #DE5752",
"0  c #D75D52",
"q  c #DC5A53",
"w  c #DC575C",
"e  c #D85B59",
"r  c #E94F47",
"t  c #E75243",
"y  c #EB5545",
"u  c #EC5A43",
"i  c #E6564E",
"p  c #EB554B",
"a  c #EE594D",
"s  c #E45552",
"d  c #E25851",
"f  c #E95950",
"g  c #CE644E",
"h  c #C46B4C",
"j  c #D36345",
"k  c #D86047",
"l  c #D1604E",
"z  c #D36250",
"x  c #74BD26",
"c  c #79BD25",
"v  c #73BD2B",
"b  c #79BD28",
"n  c #73BD34",
"m  c #67C606",
"M  c #6AC707",
"N  c #66CB05",
"B  c #6AC906",
"V  c #65C60E",
"C  c #6BC70D",
"Z  c #66CA0A",
"A  c #6BCA0C",
"S  c #67C512",
"D  c #6DC614",
"F  c #67C912",
"G  c #6BCB13",
"H  c #6AC619",
"J  c #66C819",
"K  c #76C02D",
"L  c #78C134",
"P  c #8DAD1B",
"I  c #8EB21D",
"U  c #91B21B",
"Y  c #90B321",
"T  c #91B62A",
"R  c #ACFF46",
"E  c #ADFF4D",
"W  c #B1FF4D",
"Q  c #ACFF52",
"!  c #ADFE59",
"~  c #B1FF53",
"^  c #B2FF5B",
"/  c #B1FF60",
"(  c #CCED5E",
")  c #D6ED5E",
"_  c #CFEE65",
"`  c #CEEE6D",
"'  c #C3EC6A",
"]  c #D9ED63",
"[  c #CDF062",
"{  c #C4F36F",
"}  c #CAF26D",
"|  c #C3EF74",
" . c #CCEC74",
".. c #D0EE72",
"X. c #C4F272",
"o. c #C8F075",
"O. c #FF979F",
"+. c #FF989F",
"@. c #CFBA9B",
"#. c #D7B59C",
"$. c #D3BA9C",
"%. c #D9BA9E",
"&. c #EEAB95",
"*. c #E4AF9F",
"=. c #F2AC93",
"-. c #FF96A3",
";. c #FF9CA2",
":. c #FF96AA",
">. c #FF9BAD",
",. c #FF96B2",
"<. c #FF9BB4",
"1. c #FF9AB8",
"2. c #D7B7A0",
"3. c #D9B6A3",
"4. c #D8B8A1",
"5. c #DAB9AA",
"6. c #DDACB4",
"7. c #DCABBB",
"8. c #DFB0B6",
"9. c #DCB1BD",
"0. c #E4AFA1",
"q. c #F9A1AF",
"w. c #E3ABB6",
"e. c #E4ABBC",
"r. c #E9A9BE",
"t. c #FAA1B2",
"y. c #D7FFA6",
"u. c #D1FFB0",
"i. c #E3FBBF",
"p. c #ECFDBE",
"a. c #F1FDB7",
"s. c #F0FFB9",
"d. c #ECA6C2",
"f. c #EDA9C2",
"g. c #FFE6C2",
"h. c #FFE5C9",
"j. c #FFE5C9",
"k. c #FFE8CA",
"l. c #E4FEC4",
"z. c #EAFFC7",
"x. c #E7FDCB",
"c. c #E9FCCB",
"v. c #FFEFD1",
"b. c #FFE9D5",
"n. c #FFEBD7",
"m. c #FFEAD6",
"M. c #FFECD8",
"N. c #FFECD8",
"B. c #FFF3D1",
"V. c #F9F1DC",
"C. c #DCFDE2",
"Z. c #EDEFE1",
"A. c #F5ECE7",
"S. c #FAECE5",
"D. c #F7EEE9",
"F. c #FEEFE9",
"G. c #FFEEEF",
"H. c #FEEDEA",
"J. c #EFF1E3",
"K. c #F2F2E6",
"L. c #F1F4E5",
"P. c #F4F1E8",
"I. c #FDF2EC",
"U. c #FFEDF0",
/* pixels */
"N N W W A Z ^ ~ C A W R G V Q  .*.r.J.L.e.r.L.v.6 < ; p ,.d.P.C.",
"A A E E A V / ! C C ~ ^ S G R { $.7.F.D.9.8.M.h.0 p y d ;.q.H.L.",
"Q Q A B E ^ . O ^ ! . . ^ E A x z.G.7.9.A.M.h 7 -.,.>.;.8 0 t.d.",
"Q Q F F E Q X . Q Q . . Q W C n c.U.7.6.M.k.5 f :.1.:.;.8 8 ;.,.",
"G H O o G A ~ ~ C G ! ^ D D X   3.7.F.b.h 5 ;.O.s r a 9 ;.;.d p ",
"V H O . G B R W A A R E C H O   5.w.b.g.# y >.>.p * < p :.>.y ; ",
"~ E S D E E A m E ~ G A E Q S n l.b.4 % > y ,.1.s , * r 1.,.p < ",
"E W A A E E m A ~ E G G R Q G x s.h.g u ; = -.:.w f p s :.-.0 k ",
"Z A E Q m A Q Q A A Q Q m B E [ + l ;.O.y ; , i :.1.,.O.i 7 h.v.",
"Z A E E A A Q Q A A Q Q A A E ) 2 y >.<.t & & , -.:.>.;.5 h M.L.",
"Q E A A E E A A E W A A Q Q A U 1 y >.:.p : & ; , y y 5 h.b.6.e.",
"E E M A E Q G A E E A A Q Q A I 3 d >.;.d a t = ; > - h M.D.9.e.",
"N A W E A C E E C A E R A Z R ` &.:.9 9 ;.:.<.O.u $ g.b.6.9.D.L.",
"B B E E A G E E A C R E A A E { 4.t.e 9 >.>.>.+.g 4 b.F.7.7.I.J.",
"~ E A A E E A A E E A A E E A b p.S.t.>.d y p z h.M.w.e.U.H.7.r.",
" .X.x x o.X.b c _ ) I I ..o.v n y.p.2.&.3 1 2 + a.i.%.#.c.c.%.*.",
"0.$.l.l.$.$.l.a.@ 2 1 3 =.2.x.u.n x X.` Y U ] _ c b } ' L v X. .",
"r.6.F.D.9.8.M.h.0 p y d ;.q.H.l.K A E E A V / ! C C ~ ^ S G R W ",
"P.G.7.9.A.M.h 7 -.,.>.;.8 0 t.4.| Q A B E ^ . O ^ ! . . ^ E A N ",
"D.U.7.6.M.k.5 f :.1.:.;.8 8 ;.&. .Q F F E Q X . Q Q . . Q W C G ",
"d.7.F.b.h 5 ;.O.s r a 9 ;.;.d 3 T H O o G A ~ ~ C G ! ^ D D X X ",
"f.w.b.g.# y >.>.p * < p :.>.y 1 P H O . G B R W A A R E C H O X ",
"Z.b.4 % > y ,.1.s , * r 1.,.p 2 ] E S D E E A m E ~ G A E Q S J ",
"B.h.g u ; = -.:.w f p s :.-.0 @ ( W A A E E m A ~ E G G R Q G Z ",
"j l ;.O.y ; , i :.1.,.O.i 7 h.a.x A E Q m A Q Q A A Q Q m B E E ",
": y >.<.t & & , -.:.>.;.5 h M.l.x A E E A A Q Q A A Q Q A A E E ",
"; y >.:.p : & ; , y y 5 h.b.6.$.X.E A A E E A A E W A A Q E A N ",
"p d >.;.d a t = ; > - h M.D.9.@.X.E M A E Q G A E E A A Q Q A N ",
",.:.9 9 ;.:.<.O.u $ g.b.6.9.D.l.x A W E A C E E D G E R A Z R E ",
"d.t.e 9 >.>.>.+.g 4 b.F.7.7.I.l.x B E E A G E E G C R E A A E W ",
"V.S.t.>.d y p z h.M.w.e.U.H.7.$.X.E A A E E A A E E A A E E A A ",
"x.V.d.,.p ; : j B.Z.f.d.D.D.f.*. .~ N N ~ ~ B B E Q N N ~ ~ C Z "
};
