/* XPM */
static char *xpm_[] = {
/* columns rows colors chars-per-pixel */
"32 32 201 2 ",
"   c #020202",
".  c #0C0000",
"X  c #000A00",
"o  c #05000B",
"O  c #0A0405",
"+  c #140000",
"@  c #1C0000",
"#  c #001400",
"$  c #001800",
"%  c #240000",
"&  c #2B0000",
"*  c #330000",
"=  c #3C0000",
"-  c #430000",
";  c #1E7A00",
":  c #2F6D00",
">  c #346F03",
",  c #297400",
"<  c #237D00",
"1  c #2C7B00",
"2  c #347102",
"3  c #3A6324",
"4  c #45601D",
"5  c #DE3F1F",
"6  c #EA3D0B",
"7  c #E73E04",
"8  c #F53706",
"9  c #F43A06",
"0  c #F6350A",
"q  c #FA350B",
"w  c #F5390B",
"e  c #FB3A0A",
"r  c #FC3A04",
"t  c #EE3811",
"y  c #FD3910",
"u  c #F93610",
"i  c #D33F25",
"p  c #B85529",
"a  c #BA4E33",
"s  c #B74E39",
"d  c #BD4D39",
"f  c #B95133",
"g  c #B9513A",
"h  c #B94C2B",
"j  c #D8480C",
"k  c #CD481D",
"l  c #CB471A",
"z  c #DA4313",
"x  c #D4441C",
"c  c #DB441C",
"v  c #D44A1E",
"b  c #DA4918",
"n  c #CA501D",
"m  c #CD4708",
"M  c #EA430A",
"N  c #E84209",
"B  c #E64216",
"V  c #CB4B23",
"C  c #C54C28",
"Z  c #D44423",
"A  c #D94323",
"S  c #D34A23",
"D  c #D94827",
"F  c #C34E31",
"G  c #C84B39",
"H  c #F8522C",
"J  c #FA4F33",
"K  c #FB5234",
"L  c #F45237",
"P  c #E74425",
"I  c #D5623B",
"U  c #BA6954",
"Y  c #D75C48",
"T  c #D45E51",
"R  c #DD5152",
"E  c #E34F4B",
"W  c #E8564A",
"Q  c #E45752",
"!  c #F15548",
"~  c #CF624E",
"^  c #D36248",
"/  c #C16953",
"(  c #CD6750",
")  c #6DBC2B",
"_  c #74BD2B",
"`  c #70BA29",
"'  c #69C905",
"]  c #66C60C",
"[  c #6CC70C",
"{  c #66CB0B",
"}  c #6CCA0C",
"|  c #6ACA06",
" . c #70C90E",
".. c #6BCA13",
"X. c #6CCA18",
"o. c #67C614",
"O. c #72C718",
"+. c #6EC229",
"@. c #72C22B",
"#. c #75C030",
"$. c #FF8121",
"%. c #E4823C",
"&. c #81B542",
"*. c #81B841",
"=. c #D78D5B",
"-. c #FF8D43",
";. c #FF8D4C",
":. c #F3954B",
">. c #FF934D",
",. c #F59A4C",
"<. c #FA994E",
"1. c #FE8D53",
"2. c #E89A58",
"3. c #F49653",
"4. c #FB9451",
"5. c #F59954",
"6. c #FB9953",
"7. c #F4965B",
"8. c #FA925D",
"9. c #F3995C",
"0. c #EA8541",
"q. c #DD9F69",
"w. c #CF9B76",
"e. c #DA9E73",
"r. c #D59E7A",
"t. c #E49C63",
"y. c #EA9B63",
"u. c #E39C6A",
"i. c #EB9B69",
"p. c #EB9466",
"a. c #F29B63",
"s. c #F99A64",
"d. c #F49466",
"f. c #E09D70",
"g. c #CFA16F",
"h. c #DAA26A",
"j. c #CFA575",
"k. c #D3A173",
"l. c #D6A278",
"z. c #D9A17B",
"x. c #D8A777",
"c. c #E4A064",
"v. c #E6A169",
"b. c #EAA16C",
"n. c #ADFF4D",
"m. c #AAFF46",
"M. c #B2FF4D",
"N. c #B0FF44",
"B. c #AEFF52",
"V. c #AAFF56",
"C. c #B3FF54",
"Z. c #B2FD5C",
"A. c #ADFE63",
"S. c #B4FC64",
"D. c #B8F86A",
"F. c #BCF772",
"G. c #D1EE6E",
"H. c #C5F174",
"J. c #FF949F",
"K. c #E9AE9E",
"L. c #FF9BA4",
"P. c #FF96AB",
"I. c #FF9BAC",
"U. c #FF96A6",
"Y. c #FF95B1",
"T. c #FE9BB4",
"R. c #FE9EB9",
"E. c #DAB8A1",
"W. c #DCADBC",
"Q. c #DBADB7",
"!. c #FCA3AC",
"~. c #E2AABA",
"^. c #E7A6BA",
"/. c #FCA3B4",
"(. c #F4A1B1",
"). c #E5B1A4",
"_. c #BDEE85",
"`. c #C8E986",
"'. c #F09FC0",
"]. c #DEB2C1",
"[. c #ECA5C3",
"{. c #E5AAC3",
"}. c #F0A7C2",
"|. c #E1B1C1",
" X c #DEFED9",
".X c #FFE5CB",
"XX c #FEF5CE",
"oX c #FFEADC",
"OX c #FDEDD4",
"+X c #EBF6DB",
"@X c #FFF1D4",
"#X c #FCF3DB",
"$X c #DAFDE2",
"%X c #EDEDE3",
"&X c #FEEAE4",
"*X c #F9EEEA",
"=X c #E6F9E4",
"-X c #EDF7E4",
";X c #F3F3E3",
":X c #F2F4E9",
">X c #FFF0E9",
/* pixels */
"' [ C.B.} } N.M.} #.X                       $XXXI H L Q T.~.;X X",
"}  .B.B.] ] C.Z._ &.. % % % % % % % % % % + -XOX( W W R I./.&X;X",
"n.n.[ [ B.S., 2 # + p l Z D k S Z D Z Z c h @ + (.Y.T.I.W Y !.^.",
"M.n.X.X.V.A.: 4 + = z 9 w w 8 8 q u w 8 r B - & {.'.T.J.Q W L.I.",
"{ o.< < o.+.# + f c t q q q e q q q 9 e 0 u P d % % T Q U.P.Q W ",
"{ o.< ; X.) # % A y q q y w c A A B 6 w q y 0 A % @ Y W Y.T.W K ",
"B.n.[ [ m.D.X % A q q e 0 5 = % % = A 9 w w q D & % ^ W T.P.! H ",
"C.M.|  .S._.X % A 0 e 6 A g @     + s c 6 8 e A & @ / T L.L.Y I ",
"} [ M.D.# X   % Z 8 w x = @ .     . + = z r 8 Z % . @ * T T .X@X",
"} [ n.F.X     + f S Z F * % % & % % % * C x A d @     + / / oX:X",
"B.n.} _ X     . + % % * G i A b v v x F * % % @ .       #XoX~.[.",
"B.V.+.*.O + .   . . + * S B M 7 7 N M v & + + +     . . -X:XW.[.",
"..@.$ X j.w.+ + l.v.y.a.1.4.;.>.>.;.;.1.a.u.i.z.. . k.x..   :X;X",
"[ ` X + u.b.% % y.:.<.:.y.y.3.<.6.3.a.y.3.5.:.y.@ @ y.y.+ O :X;X",
"N.F.X . v.3.p.i.5.<.4.i.@ @ y.:.:.t.% % i.4.<.5.y.y.5.y.+ . W.{.",
"G.`.X   k.b.u.i.3.6.4.u.+ . t.,.,.q.+ + u.3.<.3.y.t.i.k.  X E.).",
"K.E.+X+X. + + % y.3.3.u.+ + t.,.,.t.+ + u.3.3.y.% + + O *._ H.H.",
"^.Q.&X:X      + r.i.9.y.% % 7.-.;.9.% % y.9.y.r.+   X # ` ..n.n.",
";X>XW.Q.:X=X  . + % y.5.y.s.j M N b s.y.5.y.% .   X 3 > S.n. .' ",
";X&X|.].;X=X    + & s.4.y.p.V c A V p.y.4.s.% .   X 3 2 S.B.o.X.",
"}.~.>X:X  X   + e.7.m n & + % % & & @ * k j 8.e.+   X # @.o.1 , ",
"[.|.;X-X. + + @ q.7.j n & + % % % % @ & S z 8.f.@ + . X *.) , 1 ",
":X%X  . k.c.i.e.@ & 7.4.y.p.C Z A C p.i.8.d.& % e.t.u.x.  # @.o.",
"@X#X  + 2.,.6.i.+ @ d.;.>.;.j N N z 1.1.1.d.@ + t.:.5.u.+ X _ ' ",
"~ U + + t.:.<.i.@ % V 6 6 N -.>.4.;.B 6 6 V @ + t.4.5.u.+ X F.M.",
"L Y & @ z.t.v.l.+ % d Z A k 9.c.h.y.V A Z f @ . z.u.u.g.O # S.n.",
"K W I.^.+ . . . . . @ % % % + + . + % & % @ .   + + .   `.S.X.{ ",
"! E L./.@ o     @ % % @               . @ % % @ .     # S.m.] { ",
"Y.I.W Q R.{.O @ a Z Z d @   o         % s Z Z a @   `.D.O...B.B.",
"[.T.Q W P.T.& * F x Z a + . @ @ @ + . @ s S Z p + # D.n.] ] n.C.",
":X&X!.L.E W W ~ & @ % @   . =.0.%.=.+ O @ % % + `.S.O.[ n.B.] } ",
"$X-X^.I.W J K Y @         + %.$.$.%.@ o       X F.n.} ' n.n.} ' "
};
