/* XPM */
static char *xpm_[] = {
/* columns rows colors chars-per-pixel */
"32 32 199 2 ",
"   c #020102",
".  c #0C0000",
"X  c #000B00",
"o  c #020109",
"O  c #080800",
"+  c #130000",
"@  c #1B0000",
"#  c #001500",
"$  c #001800",
"%  c #230000",
"&  c #2B0000",
"*  c #3A0000",
"=  c #300000",
"-  c #400000",
";  c #237500",
":  c #2B7502",
">  c #257B00",
",  c #2B7900",
"<  c #327204",
"1  c #416120",
"2  c #EC3C06",
"3  c #EB3B0B",
"4  c #F43505",
"5  c #F93605",
"6  c #F63904",
"7  c #FA3B06",
"8  c #F3360A",
"9  c #FC360B",
"0  c #F6390A",
"q  c #FA3A0C",
"w  c #EE3F14",
"e  c #F93E12",
"r  c #F23812",
"t  c #BB4C2D",
"y  c #B7522B",
"u  c #BB522B",
"i  c #BB4F35",
"p  c #BE4E3A",
"a  c #B54E36",
"s  c #B75236",
"d  c #CA4A1D",
"f  c #CF431F",
"g  c #D3431E",
"h  c #DA441D",
"j  c #DF4811",
"k  c #E6410B",
"l  c #E5460B",
"z  c #F14108",
"x  c #E1421C",
"c  c #CB4922",
"v  c #D54422",
"b  c #DC4321",
"n  c #D74922",
"m  c #DA4927",
"M  c #C14A32",
"N  c #DE5C3B",
"B  c #F94F2E",
"V  c #F8512D",
"C  c #FA5334",
"Z  c #F1553B",
"A  c #F55538",
"S  c #D3623E",
"D  c #D9613F",
"F  c #BD694D",
"G  c #BE6754",
"H  c #D95D44",
"J  c #D25E4D",
"K  c #DD5C4B",
"L  c #D45C52",
"P  c #D75C59",
"I  c #E65245",
"U  c #EA5545",
"Y  c #E2564E",
"T  c #EB554B",
"R  c #E05B4D",
"E  c #E85947",
"W  c #E45955",
"Q  c #E45556",
"!  c #F0564A",
"~  c #C36749",
"^  c #D56248",
"/  c #C36A54",
"(  c #C66652",
")  c #6FBE2A",
"_  c #71BF25",
"`  c #74BD2A",
"'  c #78BD2C",
"]  c #7FB23D",
"[  c #76BD31",
"{  c #65CC06",
"}  c #6CC60D",
"|  c #66CB0B",
" . c #6BCA0C",
".. c #67C806",
"X. c #71C50D",
"o. c #6CC513",
"O. c #65CA12",
"+. c #6BC914",
"@. c #6DC919",
"#. c #67C416",
"$. c #70CA12",
"%. c #70CA1A",
"&. c #6FC22B",
"*. c #6EC222",
"=. c #72C222",
"-. c #75C52D",
";. c #7CB845",
":. c #80AD36",
">. c #85B640",
",. c #FF8C4B",
"<. c #F6944D",
"1. c #FC944D",
"2. c #FF9047",
"3. c #FF8950",
"4. c #EF9B55",
"5. c #E99E5D",
"6. c #E29E5F",
"7. c #F39653",
"8. c #FD9452",
"9. c #F59952",
"0. c #FB9A53",
"q. c #F99959",
"w. c #DC9C74",
"e. c #D39F7C",
"r. c #DA9D7A",
"t. c #E49B64",
"y. c #EB9C64",
"u. c #E49D69",
"i. c #EB9D69",
"p. c #E99663",
"a. c #F49665",
"s. c #F49962",
"d. c #D3A36A",
"f. c #D8A27B",
"g. c #D8A275",
"h. c #E7A169",
"j. c #ACFF47",
"k. c #ACFF4C",
"l. c #A5FF49",
"z. c #B2FF4C",
"x. c #B3FF45",
"c. c #ADFF52",
"v. c #ADFF5B",
"b. c #B1FF54",
"n. c #B2FF59",
"m. c #B3FE65",
"M. c #B5F96A",
"N. c #B9F675",
"B. c #C6EF6D",
"V. c #C9EE74",
"C. c #C7F070",
"Z. c #C3F36C",
"A. c #FF999B",
"S. c #D6B89A",
"D. c #D8BA9E",
"F. c #FF95A4",
"G. c #FF9AA5",
"H. c #FF94AD",
"J. c #FF9AAB",
"K. c #FF96B3",
"L. c #FF9AB4",
"P. c #FA9CBB",
"I. c #DDB4A8",
"U. c #DDABB4",
"Y. c #DDADBC",
"T. c #DFB1BB",
"R. c #E8AFA1",
"E. c #F8A3AE",
"W. c #ECA6B3",
"Q. c #EAAABB",
"!. c #E3A9BA",
"~. c #F8A7B5",
"^. c #E3B1BD",
"/. c #C8E88A",
"(. c #D4E38E",
"). c #CAF088",
"_. c #EAA8C1",
"`. c #F4A7C3",
"'. c #E2B1C2",
"]. c #DBFFDE",
"[. c #FFE5C3",
"{. c #FFE9CD",
"}. c #E6FEC5",
"|. c #E9FFC6",
" X c #FFF2CB",
".X c #FFF0C6",
"XX c #FFECD4",
"oX c #FFECDB",
"OX c #FFE7D0",
"+X c #E4FBDA",
"@X c #F4F4DC",
"#X c #FFF1DA",
"$X c #ECEDE7",
"%X c #FDECE5",
"&X c #FDECEB",
"*X c #F8EBE4",
"=X c #EAF6E9",
"-X c #F2F4E3",
";X c #FAF3EA",
/* pixels */
"|  .z.b.O.O.j.x..._ X   o o             o   +X XS A C T L.!.-X+X",
" .} k.b.+.+.n.b.=.:.@ % % % % % % % % % % @ @XXX( E T Y J.~.%X-X",
"z.b. . .k.v.; < # + u v v m v m v m g n v a + . E.H.K.J.Y L ~.!.",
"k.k.#.+.c.m.: 1 + * x 9 q 0 5 5 0 8 6 6 0 b * % Q.P.P.F.W K J.L.",
"{ O.> > #._ # + s b r 9 0 q 7 q 0 e 6 7 0 3 h i % & P Q F.J.Y U ",
"{ O.> > &.;.X @ c 3 q 9 0 6 4 0 8 8 5 5 q w h s @ @ H T K.L.U C ",
"z.k.+.) # X   @ s.,.3 9 q 0 q 9 e 8 q 9 4 h * +   % H U L.H.! B ",
"z.b.=.] O + @ % 5.1.j 3 0 6 9 9 0 0 9 9 9 v %     @ / J G.G.J D ",
"} ` # O d.t.p.y.4.9.8.3.2 7 6 q 6 q 9 9 5 h %     . + & J ^ [. X",
"+._ # O d.i.i.s.8.8.8.,.z 2 h f v g v n g t %         + / ~ XX-X",
"k.b.=.>.. + + & d k k 2 6 x - % % % % % % @ .       o   oXoX!._.",
"c.k. .` X o   + i g n v b p @   . + + .     . .       O $X&X'._.",
"..+.k.N.X       @ & % % % @   . f.u.u.e.. + e.f..   =X$X'.^.*X-X",
" .} c.M.# X       . + @ @ +   + t.0.7.h.. + t.u.+   =X&XY.^.%X-X",
"k.k. .o.M./.X     + w.i.p.r.. + i.<.0.t.. + t.u.+ . Y.Y.%X%XY.Q.",
"V.Z.` ' B.(.X     + t.1.8.p.% @ p.0.<.i.@ @ 5.u.+ . I.D.}.|.S.R.",
"R.D.}.|.S.I.-X=X  . i.1.8.q.t.i.4.9.8.7.h.6.7.t.@   (.C.` ' C.V.",
"Q.U.&X*XT.!.oX#X  . f.i.y.y.q.<.7.9.<.8.1.8.y.g.. # N.n.+. .k.k.",
"-X%XY.Y.*XXXF G +   + + + % i.0.0.1.1.,.l d & O ).N.: , c.k. .{ ",
"-X%XY.U.oX{.~ / % + + .   + f.u.t.i.y.a.c y + # M.v., , b.k.@.O.",
"Q.!.%XXX~ ~ & % r.u.u.f.+   . . + + + @ @ + ).m.@.+.n.n.+.%.; > ",
"`.Q.OX[.N K % + a.8.,.a.@         . @ @   # M.k...} c.k.$.@.; > ",
"$X%XF N Z H % % c 2 2 c % o       @ p p @ X [ } z.z. .| k.k.@.@.",
"#XOXJ U Z H % % d z 2 c %   . + + & M t . # ` } z.z. ...k.k... .",
"^ ^ A.A.U H % + p.1.2.s.@ + g.t.i.w.% . ] @.b.z.X.X.b.b...} c.c.",
"V E J.J.U E & % g.t.t.w.+ @ t.<.<.u.+ X ;.=.k.k.} o.c.c. . .c.c.",
"C I J.J.U Z R ( % + + +   + i.8.0.u.+   X # -...c.c.+.} k.k.} | ",
"T W G.G.W I T P & @     @ & w.u.t.w.& % % + ] *.v.c.|  .k.k. .| ",
"L.F.K Y G.L.L.J.P G + + a i % + + & t v v u . # ` +.k.l.| { j.k.",
"_.~.L Y G.H.L.F.J / % % p a @     @ i v g y . $ ` } k.k.{ | k.k.",
"-X%XE.F.Q T T J [.XXW.W.& @ . o   . @ % % + ] &.v.c. . .k.k.}  .",
"].-XQ.J.T A C D .X@XW.`.+   o o o o       X &.| c.b. ...b.b.}  ."
};
