/* XPM */
static char *f0e1cc2424b04bb6f420dea9427fb9844IB9UibtlRWFGTBm[] = {
/* columns rows colors chars-per-pixel */
"32 32 183 2 ",
"   c #020102",
".  c #0C0100",
"X  c #000B00",
"o  c #020209",
"O  c #140000",
"+  c #1B0000",
"@  c #001300",
"#  c #001800",
"$  c #240000",
"%  c #2A0000",
"&  c #320000",
"*  c #3C0000",
"=  c #1F7100",
"-  c #2B6D02",
";  c #2B6D09",
":  c #316E04",
">  c #346D0D",
",  c #3A6D06",
"<  c #247301",
"1  c #2B7500",
"2  c #257C00",
"3  c #2A7A00",
"4  c #247808",
"5  c #2E720F",
"6  c #337501",
"7  c #307A00",
"8  c #347109",
"9  c #2F6912",
"0  c #336715",
"q  c #316F1A",
"w  c #39681A",
"e  c #3A6919",
"r  c #307211",
"t  c #395F22",
"y  c #3E6423",
"u  c #3A6A2A",
"i  c #48611F",
"p  c #476123",
"a  c #E63F04",
"s  c #EA3C03",
"d  c #E63F0C",
"f  c #EB3D0B",
"g  c #F53504",
"h  c #F93604",
"j  c #F53906",
"k  c #FA3904",
"l  c #F5360A",
"z  c #F9350B",
"x  c #F53A0C",
"c  c #FB3B0B",
"v  c #EF3911",
"b  c #FC3613",
"n  c #FD3A13",
"m  c #BA4D2D",
"M  c #BB4B2A",
"N  c #BA522C",
"B  c #B7542D",
"V  c #BB4E33",
"C  c #BD4F3B",
"Z  c #B54D30",
"A  c #B65230",
"S  c #BA5133",
"D  c #CA471E",
"F  c #D4421E",
"G  c #DA441D",
"H  c #DC4115",
"J  c #E4420C",
"K  c #EC410B",
"L  c #E1421C",
"P  c #EC4012",
"I  c #CA4524",
"U  c #C74B27",
"Y  c #CA4C24",
"T  c #C34D2B",
"R  c #CA4E28",
"E  c #D64421",
"W  c #D84523",
"Q  c #DA4924",
"!  c #D44825",
"~  c #C2512F",
"^  c #C34E34",
"/  c #C25131",
"(  c #1F8200",
")  c #238000",
"_  c #73BF27",
"`  c #6DBD36",
"'  c #76BE36",
"]  c #78BC31",
"[  c #73BB3B",
"{  c #5FCC05",
"}  c #5ECC0C",
"|  c #5ECA15",
" . c #64C602",
".. c #64CC04",
"X. c #69CA04",
"o. c #68C60D",
"O. c #64CE0C",
"+. c #69CD0B",
"@. c #68C609",
"#. c #70CA0B",
"$. c #63D10B",
"%. c #6AC514",
"&. c #61CB13",
"*. c #6BCB13",
"=. c #67C71C",
"-. c #6BCC1A",
";. c #66C519",
":. c #70C11E",
">. c #72CA1E",
",. c #64D111",
"<. c #6AC720",
"1. c #66C827",
"2. c #6CC32A",
"3. c #69C72C",
"4. c #71C42C",
"5. c #7AB74C",
"6. c #FF8125",
"7. c #E8863F",
"8. c #E2813C",
"9. c #D68F5B",
"0. c #E48343",
"q. c #FF8E4C",
"w. c #FF914D",
"e. c #FF8E52",
"r. c #E1995F",
"t. c #E99B5B",
"y. c #FF9251",
"u. c #F5995A",
"i. c #D68D60",
"p. c #DE9D63",
"a. c #DB9B6F",
"s. c #DE9C75",
"d. c #DC9D79",
"f. c #D59F77",
"g. c #E39C64",
"h. c #E99B66",
"j. c #E49C6A",
"k. c #E9986B",
"l. c #EE9569",
"z. c #F59765",
"x. c #F29865",
"c. c #F2966C",
"v. c #F3986B",
"b. c #E49D72",
"n. c #CEA673",
"m. c #D5A274",
"M. c #DBA576",
"N. c #D5A078",
"B. c #DAA079",
"V. c #E2A064",
"C. c #ACFF4C",
"Z. c #B4FE4D",
"A. c #B9FD4D",
"S. c #ADFE53",
"D. c #AEF75F",
"F. c #A7FF5F",
"G. c #AEFD5C",
"H. c #B4FE53",
"J. c #B9FE55",
"K. c #B2F75E",
"L. c #B6FE5B",
"P. c #B1FF5D",
"I. c #B4FF5E",
"U. c #B3FE5A",
"Y. c #BAFD5A",
"T. c #AFFC63",
"R. c #B4FD63",
"E. c #B9FB63",
"W. c #B7F66B",
"Q. c #BBF56C",
"!. c #B7FA6A",
"~. c #B4FC6C",
"^. c #BAF96B",
"/. c #B6F572",
"(. c #BBF474",
"). c #B9F579",
"_. c #B0FC75",
"`. c #D9A082",
"'. c #CAEC86",
"]. c #C7EB89",
"[. c #CBED8C",
"{. c #C5E985",
"}. c #D0E886",
/* pixels */
"H.H.S.H.H.Z.Y.H.Z.Q.X           o o       X (.H.H.Z.Y.J.U.S.C.C.",
"A.H.P.U.Y.J.S.U.~.'.+ $ % $ % $ $ + $ $ $ + '.Q.Y.H.Y.E.G.S.Z.Z.",
"A.Y.3 1 Y.A.H.~.@ O N E E W F W G F ! E G N O @ ~.L.6 6 L.H.Z.Z.",
"L.E.1 7 E.Y.W.{.. * G g c l c c k c g c j H & . './.: 6 D.U.A.Z.",
"2 = ~.T.- , @ + N d v c j c l l h h c l c x G B O # (.!.1 < U.H.",
"4 ) T.G.1 > X $ G z z l j j l x j h c z g l j E $ X Q.K.6 7 G.H.",
"< = =.*.;.[ X % Q l n b h k c g l n x z x c j Q $ X ' =.< < R.H.",
"1 2 =.;.2.5.X $ E z b z h k j l l z x z z x j F $ X 5.` 3 7 K.Y.",
"R.P.3 1 @ X   $ W h n z k k j j x x j j l n l ! $   X @ > 6 E.Y.",
"Z.U.< > X   X + S L v x s a J J J J a s x v G C +     X 9 < R.Z.",
"X.%.2 q X       + * G s q.q.e.e.e.q.q.q.s G * +       X r ) *...",
"X.-.- y   O       + m D z.j.b.j.j.h.h.z.I V $       . X w < -...",
" ._ @ . B.d.+     . + $ + + + O + + + + $ + .     O d.B.  @ 2...",
"#.] X + k.h.$ O     o   o               o   o . O $ c.k.+ @ ' *.",
"S./.X + j.u.t.m..   o o           o   o       . m.t.u.j.+   /.C.",
"H.W.@   m.j.g.m.O     o           o           . m.g.V.m.. @ ^.Z.",
"H.P.W.].  + . .                                   . O . [.Q.Y.H.",
"H.H.R.).@ X     . + + + . o .   .       + + + .       X Q.J.H.Z.",
"Z.U.< 6 (.[.  O m.h.R V +             + Z R l.`.+   y 6 ~.H.J.A.",
"U.R.1 1 ).'.+ & a.l.T ^ % + O O O O O % ^ Y c.s.& + i ; _.G.H.A.",
"< 3 R.).@ + ~ T % + $ $ b.g.V.p.p.j.b.d.% $ + % R ~ + # - 2 Y.J.",
"< 1 ).'.. % ^ T & + . + z.q.w.w.w.y.e.c.+ . $ & R M $   y 8 E.Z.",
"1 r @ . M.M.$ % T Z + $ D K J J J J P I $ + V T & $ M.n.  X Q.Y.",
"1 >   + j.j.. + A S + $ I f a J J d d I $ + S S + O p.V.O   ).H.",
"G.).X + g.g.O   + + . + v.e.e.e.q.w.q.z.+   + +   + g.g.+ X (.H.",
"C.^.@ . f.m.O         . f.j.p.h.j.p.h.m..         O d.m.. @ !.H.",
"#.:.: y   .           . . + + O + + + O       o     O   w : <.#.",
" .*.2 5 @       + % $ + .             . + $ $ +       @ 8 2 %. .",
"$.| | 3.< u   + ^ E W ^ +   o     o   + C W E ^ + X u < 1.} O.$.",
"} ,.} O.) 1 X + S F W S +   O + + . . + C ! G M + @ < ( } { $.{ ",
"S.C.+.+.o.4.: p O $ + + . O i.0.0.9..   + $ $ + i - 3.| O.+.C.H.",
"H.Z.X...+.;.1 w X   X     + 0.6.6.8.+ o o     X 0 2 ;.O.O.@.J.Y."
};
