/* XPM */
static char *_0e81ac98bfb42cdc60bcf98976cbee3uBr1ORSvXs7f5rNJ[] = {
/* columns rows colors chars-per-pixel */
"32 32 185 2 ",
"   c #020202",
".  c #0C0000",
"X  c #000B00",
"o  c #03020A",
"O  c #130000",
"+  c #1C0000",
"@  c #001400",
"#  c #001900",
"$  c #230000",
"%  c #2A0000",
"&  c #300000",
"*  c #3C0000",
"=  c #400000",
"-  c #1E7D00",
";  c #2A6E02",
":  c #2F6D0C",
">  c #316E01",
",  c #316E0F",
"<  c #257400",
"1  c #2B7400",
"2  c #257A00",
"3  c #2B7900",
"4  c #2D720A",
"5  c #327303",
"6  c #317C00",
"7  c #32700F",
"8  c #2F6915",
"9  c #376B18",
"0  c #356916",
"q  c #3C6423",
"w  c #445F18",
"e  c #40691D",
"r  c #41601D",
"t  c #416B23",
"y  c #D73F19",
"u  c #EB3D0B",
"i  c #E93B08",
"p  c #F43405",
"a  c #F93603",
"s  c #F63904",
"d  c #F93A05",
"f  c #F43609",
"g  c #FB350C",
"h  c #F23C0C",
"j  c #FA3A0B",
"k  c #EA3910",
"l  c #FA3613",
"z  c #F73A10",
"x  c #FB3B11",
"c  c #D53F22",
"v  c #BB4F2E",
"b  c #B54F29",
"n  c #BB522D",
"m  c #BD582E",
"M  c #BC4D34",
"N  c #BC5334",
"B  c #DE460A",
"V  c #CD4918",
"C  c #C44417",
"Z  c #D3441C",
"A  c #DC421B",
"S  c #D8491F",
"D  c #D0491A",
"F  c #EA400C",
"G  c #E0431E",
"H  c #C64C22",
"J  c #CC4925",
"K  c #C04E2C",
"L  c #D54423",
"P  c #D94424",
"I  c #D9442A",
"U  c #D34329",
"Y  c #C34B33",
"T  c #C24F3D",
"R  c #E14721",
"E  c #6FBD2F",
"W  c #70BF2E",
"Q  c #70BC24",
"!  c #75BD35",
"~  c #73BB3C",
"^  c #5FCC07",
"/  c #5DCB0A",
"(  c #5ED207",
")  c #5FC71A",
"_  c #5EC917",
"`  c #63CC05",
"'  c #6BC906",
"]  c #65C60C",
"[  c #65CB0B",
"{  c #6ACC0C",
"}  c #72C708",
"|  c #70CB0C",
" . c #62D006",
".. c #64D10B",
"X. c #6AD00D",
"o. c #65C614",
"O. c #64CB13",
"+. c #6ACA14",
"@. c #64C61D",
"#. c #6AC31C",
"$. c #6ACA1B",
"%. c #64CB18",
"&. c #72CA1E",
"*. c #67C522",
"=. c #6CC323",
"-. c #6ACA23",
";. c #6CC32D",
":. c #72C02D",
">. c #6CC034",
",. c #75C237",
"<. c #7DB646",
"1. c #7EB84D",
"2. c #84B43E",
"3. c #85B440",
"4. c #DE975F",
"5. c #FF8D45",
"6. c #FF8948",
"7. c #FF9047",
"8. c #F3944A",
"9. c #FE944D",
"0. c #F6994D",
"q. c #FA994E",
"w. c #FF8C50",
"e. c #E6985E",
"r. c #EB9D5E",
"t. c #F59652",
"y. c #FC9554",
"u. c #F59A54",
"i. c #FA9B53",
"p. c #F39C5B",
"a. c #FC9A59",
"s. c #DD9766",
"d. c #DD9D6F",
"f. c #D59F79",
"g. c #DA9D7E",
"h. c #D59F73",
"j. c #E49C64",
"k. c #EA9C62",
"l. c #E39C6A",
"z. c #EA9E6A",
"x. c #EA9668",
"c. c #F39661",
"v. c #F39966",
"b. c #E29F75",
"n. c #D5A26B",
"m. c #D3A275",
"M. c #D4A37C",
"N. c #DCA376",
"B. c #E5A065",
"V. c #E7A26D",
"C. c #A7FF4B",
"Z. c #ACFE4C",
"A. c #B8FF47",
"S. c #B3FF4E",
"D. c #BCFE4E",
"F. c #B4FE45",
"G. c #AEFF52",
"H. c #AAF759",
"J. c #ADFC5B",
"K. c #B4FE53",
"L. c #B9FE55",
"P. c #B3FD5B",
"I. c #BAFD5B",
"U. c #B5F755",
"Y. c #AEFE66",
"T. c #B3FD63",
"R. c #BBFE60",
"E. c #B7F56B",
"W. c #BBF56A",
"Q. c #B7FF6A",
"!. c #B4FD6C",
"~. c #B9FC6A",
"^. c #B6F374",
"/. c #BBF573",
"(. c #BCF479",
"). c #BAF97B",
"_. c #BFFB75",
"`. c #C0FC4F",
"'. c #C0F56F",
"]. c #C0FB6F",
"[. c #C9F377",
"{. c #C9EB8A",
"}. c #C6EA87",
"|. c #D1E687",
" X c #C4E890",
/* pixels */
"K.K.D.D.S.K.L.K.L.[.  . o       o o       X /.K.K.K.S.K.K.K.K.K.",
"K.K.P.U.L.L.Z.P.W.|.+ % % % + % + $ + % $ + |.~.I.K.J.P.K.L.K.L.",
"K.J.3 1 P.K.K.~.@ O n Z U c L Z S Z L L U v + @ E.P.1 6 K.S.K.K.",
"P.Q.1 6 E.T.E.}.O * A j j l a d a a s p j R * + {.).< 1 J.K.L.L.",
"1 < ~.T.1 5 @ O n A u a g x d a j j p j j k R b O @ ).Q.1 3 P.K.",
"1 3 P.P.2 4 X + N A F d f j p s a d j z f u u H +    X(.; 1 T.S.",
"1 < #.+.o.~ X . O * y j j j s s j j j f x F 6.k.O     X 7 2 G.K.",
"1 3 =.=.E 1.X o   $ P j f j j j d p j z k B 6.r.$ O + . q ; R.S.",
"I.~.1 5 @ X       $ P g l l z f j f j h w.6.9.0.r.j.V.m.. @ /.K.",
"L.H.5 0           + M c I U L L L G f F w.9.9.9.c.z.j.m.  @ !.G.",
"` $.< 9 X o   o   . $ % + $ % % $ * R j k k i V & O O   t 1 -.[ ",
"( O.2 > @       O O     . O O O   + N J L L L M + o   @ ; - / { ",
"( ^ O.=.5 q X . g.g.O . h.j.j.N.O . + $ $ + % + .     X ,.O.X.` ",
"{ { ' +.2 : X O l.l.. O B.9.y.j.$ . O O . .         X # ;.` { } ",
"G.Z.' ` %.~ X O j.j.O . j.a.8.z.O . f.s.V.M.O     X 3.;.O.{ Z.S.",
"K.K.} ' ] ! X + l.r.+ + z.t.u.j.$ % j.u.u.l.O     # Q ] { +.G.P.",
"L.D.A.A.L.^.X O l.p.e.k.p.y.u.p.k.k.p.u.8.B.O X  XT.I.Z.S.Z.L.P.",
"L.K.I.P.L.].@ . m.k.y.7.y.t.0.t.8.u.j.l.B.m.. X /.U.U.P.K.S.K.K.",
"L.P.3 2 J.P.'.{.  % V B 5.9.q.q.q.r.+ O O O   X [.T.5 5 P.S.G.K.",
"T.Y.< 2 Y.J.L.E.@ O N C a.B.s.j.j.m.O   O O O . {.^.5 6 H.P.P.G.",
"< < Q.Q.3 2 K.P.> w + % O O O . O O   O N.r.e.n.  # ^.!.2 2 P.P.",
"< 2 H.J.3 2 Y.Y.3 5 X   + +   o o o   O p.5.y.c.O X ^.Y.2 6 P.L.",
"3 < &.+.+.#.3 1 =.E X + M T + o   o o $ J i i H + @ ! +.< ; I.`.",
"; 3 #.+.[ +.2 < =.! # . v Y & O O .   $ J u F H $ X W o.2 6 U.D.",
"I.T.1 2 O./ O.*.2 2 ;.3.O % b.j.j.m.. O v.y.y.x.O X E *.2 1 P.K.",
"S.P.< 2 ) / ..%.- 2 E <.X O j.0.0.B.. . f.l.l.M.  # ;.@.3 1 J.C.",
"` O.3 < -.%./ _ 2 4 @ X   . V.0.0.s.O   O + O . t ; @.$.< 3 +. .",
"^ %.2 - *.@.O.-.< 9 O % $ % b.j.B.n.% + .   X @ , 3 =.$.2 2 _ ( ",
" .^ $.#.2 2 $.=.@ . n Z I Y % O + % K M + X <.! 1 1 3 2 *.O.O./ ",
"] { { o.2 2 $.,.@ O N P P M +   o + N m O @ W #.< 1 3 2 ] [ O.%.",
"G.C.{ { ] $.2 1 : r O % % $     o   + O 2.W < 1 < 2 -.O.{ { C.G.",
"K.G.`  .` +.3 ; 1 8 X o o             X W o.2 4 < - %.` ` { C.K."
};
