/* XPM */
static char *_54091350fe84210bc5c74ce7a2e3d3cBJw6qVaTH74eqc0b[] = {
/* columns rows colors chars-per-pixel */
"32 32 184 2 ",
"   c #020102",
".  c #0C0100",
"X  c #000B00",
"o  c #0D0A00",
"O  c #00020A",
"+  c #09040A",
"@  c #140000",
"#  c #1B0000",
"$  c #001400",
"%  c #001A00",
"&  c #230000",
"*  c #2A0000",
"=  c #300000",
"-  c #3C0000",
";  c #1D7700",
":  c #1D7C00",
">  c #266E00",
",  c #2A6D04",
"<  c #2D6F0C",
"1  c #346F03",
"2  c #346E08",
"3  c #257500",
"4  c #2B7401",
"5  c #247A00",
"6  c #2A7A00",
"7  c #297008",
"8  c #317301",
"9  c #317900",
"0  c #2F6A13",
"q  c #356E10",
"w  c #396C10",
"e  c #346B1A",
"r  c #376623",
"t  c #3D6624",
"y  c #436822",
"u  c #DB3F16",
"i  c #E83D05",
"p  c #ED370F",
"a  c #E73E0C",
"s  c #EA3D0B",
"d  c #F33504",
"f  c #F93503",
"g  c #F53903",
"h  c #FA3905",
"j  c #F4350B",
"k  c #FA360A",
"l  c #F53A0A",
"z  c #FB3A0C",
"x  c #EF3C13",
"c  c #F93711",
"v  c #F03E10",
"b  c #FC3911",
"n  c #D53F22",
"m  c #BB4C2B",
"M  c #B4522A",
"N  c #BB512E",
"B  c #B35122",
"V  c #BD4D31",
"C  c #BC4F38",
"Z  c #BC5233",
"A  c #BC5139",
"S  c #DC480C",
"D  c #C84D1C",
"F  c #D4451D",
"G  c #DB421C",
"H  c #D1481A",
"J  c #EA400D",
"K  c #E04A0D",
"L  c #E1481C",
"P  c #E1431C",
"I  c #CF4320",
"U  c #C74C22",
"Y  c #C94B24",
"T  c #C34A2B",
"R  c #D44423",
"E  c #DA4424",
"W  c #D84921",
"Q  c #D44825",
"!  c #C14E34",
"~  c #E14023",
"^  c #6DBE2C",
"/  c #6DBE23",
"(  c #71BF2D",
")  c #73BE34",
"_  c #7AB93E",
"`  c #78B73C",
"'  c #5FCF00",
"]  c #5DCA0A",
"[  c #5DD20B",
"{  c #64CC04",
"}  c #69CE06",
"|  c #65C60C",
" . c #64CB0C",
".. c #6ACA0C",
"X. c #60D209",
"o. c #65C613",
"O. c #69C615",
"+. c #65CA13",
"@. c #6BCC13",
"#. c #65C51C",
"$. c #69C41D",
"%. c #64CB19",
"&. c #6ACA1B",
"*. c #66C623",
"=. c #6CC522",
"-. c #67C823",
";. c #6AC922",
":. c #6DC32C",
">. c #72C22E",
",. c #75C226",
"<. c #76C23B",
"1. c #7BBA4C",
"2. c #7DB142",
"3. c #80B33D",
"4. c #81B344",
"5. c #FF8D47",
"6. c #FF8A4B",
"7. c #F3954B",
"8. c #FC934D",
"9. c #F69B4D",
"0. c #F99C4F",
"q. c #FF8E51",
"w. c #E79C5F",
"e. c #EF9C58",
"r. c #EE9E55",
"t. c #F69555",
"y. c #FD9653",
"u. c #F79A53",
"i. c #FD9A55",
"p. c #FF9358",
"a. c #F59B59",
"s. c #DD9B62",
"d. c #DC9C6D",
"f. c #DB9D74",
"g. c #D49E7E",
"h. c #E59B64",
"j. c #EB9B64",
"k. c #E69C6A",
"l. c #E99D69",
"z. c #F49664",
"x. c #F3946A",
"c. c #F19B62",
"v. c #E89E71",
"b. c #E49C74",
"n. c #D3A067",
"m. c #D4A26F",
"M. c #D4A274",
"N. c #D4A17A",
"B. c #DDA17B",
"V. c #DBA074",
"C. c #E5A06A",
"Z. c #E9A368",
"A. c #EBA172",
"S. c #ADFF4B",
"D. c #B5FF46",
"F. c #B3FE4D",
"G. c #B9FE4E",
"H. c #ADFD54",
"J. c #ACFC5B",
"K. c #B4FE53",
"L. c #B8FF53",
"P. c #B4FD5B",
"I. c #B9FE5C",
"U. c #ADFE63",
"Y. c #B1F560",
"T. c #B3FE65",
"R. c #B8FD63",
"E. c #B7F66A",
"W. c #B3FD6B",
"Q. c #B9FA6C",
"!. c #BBF469",
"~. c #B5F475",
"^. c #BDF573",
"/. c #BAF873",
"(. c #BEF67D",
"). c #C3F56E",
"_. c #C3FA6B",
"`. c #C7E87F",
"'. c #D69D80",
"]. c #BEEE8A",
"[. c #CFE881",
"{. c #CBEA83",
"}. c #CAEC8C",
"|. c #C6E983",
/* pixels */
"G.D.D.D.K.I.P.L.F.).X       O O X       . X ).G.K.H.K.F.L.S.K.P.",
"L.L.K.K.I.P.K.P._.[.@ & * & & & & # & & & # [.!.T.P.P.I.F.F.L.K.",
"K.P.4 9 J.H.L.!.$ # C E E R F F R E R E R m @ $ Q.P.6 4 I.G.K.F.",
"W.Q.4 4 Q.T.E.|.# - ~ b d g h f h k k c l E - . }.~.4 9 J.P.L.S.",
"3 3 U.T.3 , $ @ B G s c l g z h f h k c j v G Z @ $ ^.T.8 4 K.D.",
"4 3 U.U.1 t X # D J g g z h k f h h z j c v G A # X E.H.4 9 P.D.",
"4 6 -.:.$ X   @ j.6.J b d z l z g f z c l G - # . X ( ..3 > T.K.",
"9 3 ) 2.. # @ & j.8.S i l z g g h l c j z E &     X ` ( 4 9 J.K.",
"P.Q.$ X M.k.k.j.u.y.6.6.g z g l g l j z k E &     X X $ q , R.G.",
"S.E.$ . M.k.k.j.6.y.q.6.J j G I Q R R Q n V #         X e 4 H.L.",
"..;.3 y   # # * H a a s l P - & & & & & & # .   O     X e 3 =.| ",
" .+.: , X +   # V F Q Q R A #   @ @ @ .     . @     X $ 7 : %.[ ",
"| ..+.<.X     . # & # # & # . @ B.k.k.'.. @ f.V.. X r 6 =.@.] [ ",
"@...} $.% X         . . @ . . # h.i.t.b.. @ w.h.@ X < 5 @.}  .{ ",
"K.S.}  .=.1.X O   . f.Z.s.g.. @ h.7.y.h.. @ k.k.@ X ) &.| ..S.S.",
"K.S...} { / % X   # h.9.t.h.& & w.0.8.j.# # k.k.# X ) | | ..F.L.",
"P.K.H.F.S.H.Q.].X @ k.7.u.a.h.j.r.9.u.t.w.w.a.n.# X ^.L.F.K.L.F.",
"K.K.I.J.P.L.S./.X . B.C.h.h.a.7.0.7.t.i.5.i.w.M.. $ ).P.K.K.L.K.",
"L.P.9 4 I.F.G.^.X   @ @ @ & c.y.t.i.y.6.K D * o }.(.9 4 P.H.K.H.",
"P.W.4 4 T.R.!.|.. @ @ @   @ f.j.h.l.h.x.U M @ % ~.W.> 4 T.H.P.K.",
"3 3 W.U.4 8 X o M.k.j.f..   # # # @ # # # @ {./.3 6 U.T.3 4 P.K.",
"4 6 H.H.5 2 X # x.p.6.x.@         . # # . X `.T.6 ; J.J.6 4 R.K.",
"3 3 +...+.) X & Y a s Y # X   X   # ! ! # X w 3 $.%. .&.3 9 P.D.",
"4 6 =. .@.>.X # Y J J Y #   .   . * T N @ $ , 6 &.@. .o.6 4 P.G.",
"T.W.3 5 +.( X # c.5.q.x.@ @ N.C.h.b.* @ 4.:.&.;.6 5 @.O.5 4 T.L.",
"H.T.3 3 %.=.% X d.j.A.'.# @ s.9.t.l.@ X 1.$.| @.3 5 &.O.3 6 J.K.",
"{ &.3 5 &. .#._ o @ @ .   @ Z.9.0.s.@ X X % =.%.5 5 O.O.6 5 *.] ",
"{  .6 5 *.+.[ =.$ X X . # * k.h.s.d.* & & @ 3.:.5 5 =.;.5 ; +.[ ",
" .@.o.;.3 5 ] #.4 r X @ A m * # @ * V R E m @ % , 5 ; 5 =.&.{ ' ",
"o...{ &.5 6 -.-.3 < $ @ M A &     # C E E Z @ $ 0 3 5 5 &.{ } { ",
"S.S... .O.,.5 3 4 4 ^ 2.@ # .     . # * * @ y 0 7 6 *.+. .| S.S.",
"S.S...| ..O.3 4 4 3 %.>.X   O O O O       X e 3 7 5 %.] @.@.S.D."
};
