/* XPM */
static char *_5dc98b20ef740dbff0c7db007fa40d4NCGiKydSshxI8yS1[] = {
/* columns rows colors chars-per-pixel */
"32 32 215 2 ",
"   c #257700",
".  c #297700",
"X  c #2A7700",
"o  c #237900",
"O  c #247800",
"+  c #257800",
"@  c #247900",
"#  c #267900",
"$  c #277900",
"%  c #277A00",
"&  c #277D00",
"*  c #297800",
"=  c #297900",
"-  c #287D00",
";  c #2A7D00",
":  c #2B7D00",
">  c #67C606",
",  c #68C707",
"<  c #6CC706",
"1  c #66CB03",
"2  c #64CF03",
"3  c #67C904",
"4  c #64CA07",
"5  c #67CC06",
"6  c #68C906",
"7  c #69C906",
"8  c #6BC806",
"9  c #69CB06",
"0  c #69CA07",
"q  c #6ACA07",
"w  c #6CC907",
"e  c #68CD07",
"r  c #63C50C",
"t  c #63C70F",
"y  c #66C50F",
"u  c #67C50F",
"i  c #68C709",
"p  c #6BC50E",
"a  c #69C70E",
"s  c #6BC70E",
"d  c #6BC60F",
"f  c #6CC60C",
"g  c #6DC60C",
"h  c #6DC70D",
"j  c #6DC70F",
"k  c #64C909",
"l  c #65CB08",
"z  c #67CB09",
"x  c #65CA0A",
"c  c #66CC09",
"v  c #65CC0B",
"b  c #66C90C",
"n  c #67CA0D",
"m  c #65C90E",
"M  c #69C808",
"N  c #6BC808",
"B  c #6ACB08",
"V  c #69C80A",
"C  c #68C90A",
"Z  c #6AC90B",
"A  c #69CA0B",
"S  c #6BCA0A",
"D  c #6ACB0A",
"F  c #6CC909",
"G  c #6EC908",
"H  c #6FCA09",
"J  c #6ECB09",
"K  c #6CC80B",
"L  c #6FC80A",
"P  c #6DCA0A",
"I  c #6CCB0B",
"U  c #69CD0B",
"Y  c #6BCC0B",
"T  c #6ECE0B",
"R  c #69C80C",
"E  c #69C90D",
"W  c #6AC90D",
"Q  c #68CB0C",
"!  c #6BCA0C",
"~  c #6ACB0C",
"^  c #68C80E",
"/  c #68C80F",
"(  c #69C90F",
")  c #6AC80F",
"_  c #6BCA0E",
"`  c #6BCB0F",
"'  c #6CC80D",
"]  c #6CCB0D",
"[  c #6ECA0D",
"{  c #6DC90E",
"}  c #6CC80F",
"|  c #6FC90F",
" . c #6ECA0F",
".. c #69CC0F",
"X. c #67C411",
"o. c #67C612",
"O. c #65C315",
"+. c #66C414",
"@. c #6EC713",
"#. c #69C717",
"$. c #6CC515",
"%. c #67C910",
"&. c #66C813",
"*. c #68CA11",
"=. c #6ACA10",
"-. c #6AC812",
";. c #6AC913",
":. c #6BC913",
">. c #6DC910",
",. c #6CCA11",
"<. c #69CC11",
"1. c #6CCC13",
"2. c #6DCD13",
"3. c #6BC815",
"4. c #6DCB15",
"5. c #6BCD14",
"6. c #6BCD16",
"7. c #6ECC14",
"8. c #68C618",
"9. c #68C61A",
"0. c #6DC718",
"q. c #66C819",
"w. c #6DCB1D",
"e. c #AAFF45",
"r. c #AAFF47",
"t. c #ABFF47",
"y. c #AEFE47",
"u. c #AEFF47",
"i. c #AFFF47",
"p. c #A8FF49",
"a. c #ABFF48",
"s. c #A8FF4A",
"d. c #A9FF4A",
"f. c #AAFF4B",
"g. c #ACFF49",
"h. c #AEFF49",
"j. c #AFFF49",
"k. c #ACFF4B",
"l. c #ADFF4B",
"z. c #AEFF4A",
"x. c #AFFF4A",
"c. c #AEFF4B",
"v. c #AFFF4B",
"b. c #A9FF4C",
"n. c #ABFF4D",
"m. c #A9FF4F",
"M. c #ABFF4E",
"N. c #ABFF4F",
"B. c #ADFF4C",
"V. c #ACFF4D",
"C. c #ADFF4D",
"Z. c #AFFF4C",
"A. c #AEFF4D",
"S. c #AFFF4D",
"D. c #ACFF4E",
"F. c #ADFF4E",
"G. c #ACFF4F",
"H. c #ADFF4F",
"J. c #AEFF4E",
"K. c #AFFF4E",
"L. c #AEFF4F",
"P. c #AFFF4F",
"I. c #B3FF49",
"U. c #B0FF4A",
"Y. c #B1FF4B",
"T. c #B7FF49",
"R. c #B0FF4C",
"E. c #B2FF4C",
"W. c #B0FF4E",
"Q. c #B0FF4F",
"!. c #B2FF4E",
"~. c #B3FF4F",
"^. c #A8FF50",
"/. c #ABFF50",
"(. c #ABFF51",
"). c #A9FF52",
"_. c #ABFF53",
"`. c #ADFF50",
"'. c #ADFF51",
"]. c #AEFF50",
"[. c #AFFF51",
"{. c #AEFF52",
"}. c #AFFF52",
"|. c #AEFF53",
" X c #A9FF54",
".X c #ABFF55",
"XX c #ABFF56",
"oX c #ACFE54",
"OX c #AEFF54",
"+X c #AEFD56",
"@X c #ADFF56",
"#X c #AEFF56",
"$X c #ADFF58",
"%X c #AFFF58",
"&X c #ACFC5B",
"*X c #B1FF50",
"=X c #B0FF51",
"-X c #B3FF50",
";X c #B0FF52",
":X c #B1FF52",
">X c #B0FF53",
",X c #B3FF53",
"<X c #B0FF54",
"1X c #B1FF55",
"2X c #B2FF55",
"3X c #B2FF56",
"4X c #B4FF54",
"5X c #B5FE55",
"6X c #B0FF59",
"7X c #B1FF59",
"8X c #B4FF5A",
"9X c #B1FF5C",
"0X c #B2FF5C",
"qX c #B2FF5E",
"wX c #B1FF60",
/* pixels */
"2 3 ~.~.n n 7X1Xg I T.t.7.r |.A.5 6 ~.~.n n 7X1Xg I T.g.7.%.|.~.",
"U ! g.A.M u wX&Xa g 5X8Xo.7.a.A.U I g.g.i o.9X&Xg g 1X7Xo.>.a.g.",
"|.|.U 6 A.9X  : &X1X$ $ 9Xa.T M /.|.I 6 A.9X  : 7X&X$ $ 9Xg.T 3 ",
"oX.Xo.n A.oX* $ .X.Xo $ &X~.o.>./..Xo.n A..X. * .X.X$ o &X|.! &.",
"6.9.& o ;.[ 1X1Xa 7.&X9X@.#.* $ w.9.& o ;.[ 1X;Xa 2.&X7X@.$.* X ",
"r 9.&   4.M i.E.M a a.A.g 0.: * O.9.&   4.M g.~.M n a.|.g 0.: * ",
";Xn.o.4.n.n.I , A.;X*.n A./.+.#.oXn.o.;.|.A.M , A.;X>.! n./.o.q.",
"g.;Xi ! A.A., [ ;Xn.@.6.a.|.*.n a.|.M ! A.A.M T 1XA.o.6.a.|.! &.",
"n n A.|.i M |.A.! o.oXoX, 3 A.n.M n A.|.u , ~.|.! o.oX&X6 6 A.~.",
"5 M n.n.! ! |.|.*.! .X|.! ! A.n.! M n.g.M ! A.|.*.n .X/.I M g.A.",
"|.A.M I A./.a *.A.A.[ ! /.b.a [ n.|.I I |.A.n *.A.A.[ ! /.n.! n ",
"A.g.< H g.|.*.n ~.A.M ! /..X! i n.a.< I a.|.*.! A.E.i I ^./.! n ",
"9 J E.g.[ a b.n.a | g.t...n r.t.6 H E.E.[ a n.n.[ >.g.r.<.n r.g.",
"9 6 A.A.[ >.A.A.*.g a.a.M I E.g.6 6 g.g.a @.A.n.@.g g.a.n M ~.E.",
"~.n.M ! |.A.i I A.|.M ! A.A.[ I |.n.I [ A.A.K I n.A.! ..A.~.M ! ",
"~.n.! , |.~.g g A.A.M n oX1Xa @.A.A.M i ;X;XK a A.A.M , |.oXa ! ",
"M , A.~.[ a ;X|.g H I.t.7.u n.n.M M A.A.! *.1X|.g L I.g.7.o.n.A.",
"U ! g.g.M o.wX&X@.g 1X9Xo.1.p.A.J ! g.A.i u wX&Xg g 1X7Xo.>.p.~.",
"|.|.U 6 A.9X  : &X1X$ $ 9Xa.J M n.|.J n A.9X  : &X&X: $ 9XA.J 2 ",
"|..X&.&.A..X* * .X.X$   oX;X@.;.^..Xo.n A..X* * oX.Xo $ &XA.g &.",
"6.9.& o *.| 1X1Xa 7.$X9X$.$.* & w.9.& o *.[ 1X1Xu 7.&X9X>.$.* X ",
"r o.: o 4.M i.E.M ! n.A.g 0.: $ +.9.& $ 4.I t.~.M ! a.A.g 0.: * ",
";XA.o.8.A.A.I , g.|.*.! n./.+.#.oXn.o.#.A.A.M , A.;X>.n |./.o.9.",
"A.|.M ! A.A.i [ ;X|.*.;.a.|.*.n a.|.M ! A.A.i [ ;X|.*.1.p.A.*.&.",
"v n A.|.> i |.A.! o.oXoXM M A.n.M n n.|.i M |.A.! n .XoXi M A.A.",
"5 M n.A.! ! |.|.*.! .X/.[ U A.A.! M n.A.! I |.|.! o..X/.! M g.~.",
"|.A.I w A.n.! n A.A.g ! n.n.u ! n.A.I < A.n.! &.A.~.[ ! /.b.! n ",
"A.g.< I A.|.*.a A.~.M I ^..X..M n.a.< I A.|.&.! |.g.i J ^./.! n ",
"9 H E.g.>.a n.n.@.[ g.r...n t.t.M H E.g.>.a n.n.g | g.r.<.n a.g.",
"9 6 g.A.! >.A.n.[ a g.g.M M ~.g.M 6 g.~.[ >.A.n.>.a g.a.n M ~.E.",
"~.n.M [ |.A.! i n.n...M A.|.g [ A.a.I M A.A.K I A./.! Q A.|.M ! ",
"5X;Xv 3 ,X,Xw M A.A.n n 5X;Xa *.;X|.5 n 5X;X< 6 A.|.3 n ,X;Xa v "
};
