/* XPM */
static char *_26f903062bd414eb01be832a789583bKRtjRcr7BYgxFpWW[] = {
/* columns rows colors chars-per-pixel */
"32 32 185 2 ",
"   c #020201",
".  c #0D0100",
"X  c #000B00",
"o  c #0A0800",
"O  c #04000B",
"+  c #0B0008",
"@  c #130000",
"#  c #1C0000",
"$  c #001400",
"%  c #001800",
"&  c #240000",
"*  c #2B0000",
"=  c #340000",
"-  c #3D0000",
";  c #400000",
":  c #1E7A00",
">  c #1E7400",
",  c #2F6D00",
"<  c #326F01",
"1  c #2A7400",
"2  c #247C00",
"3  c #2B7A00",
"4  c #327101",
"5  c #327B00",
"6  c #3A6324",
"7  c #44611E",
"8  c #DE3F1E",
"9  c #E73E03",
"0  c #EB3D0A",
"q  c #F43604",
"w  c #F53904",
"e  c #F6350A",
"r  c #FA350B",
"t  c #F53A0B",
"y  c #FB390A",
"u  c #EE3811",
"i  c #E03D1C",
"p  c #FD3710",
"a  c #FE3A12",
"s  c #F23716",
"d  c #D33F25",
"f  c #BF4D2E",
"g  c #B75129",
"h  c #B9542A",
"j  c #B74E39",
"k  c #BA4D3A",
"l  c #BC4D32",
"z  c #BB5233",
"x  c #BD523E",
"c  c #D9440C",
"v  c #CD451C",
"b  c #CB4A1E",
"n  c #DB4414",
"m  c #DB4A14",
"M  c #D4441B",
"N  c #DB431D",
"B  c #D34A1D",
"V  c #D74517",
"C  c #EC4105",
"Z  c #E5450D",
"A  c #EC420A",
"S  c #E54411",
"D  c #EC4012",
"F  c #CB4B22",
"G  c #C94B2B",
"H  c #C94923",
"J  c #D44523",
"K  c #D94323",
"L  c #D34B24",
"P  c #D24728",
"I  c #C44B32",
"U  c #C84B39",
"Y  c #E44326",
"T  c #6DBC2B",
"R  c #70B72B",
"E  c #74BD2B",
"W  c #70BC26",
"Q  c #6DBA30",
"!  c #7BB53D",
"~  c #5FCE10",
"^  c #65CC05",
"/  c #69CA05",
"(  c #66C50B",
")  c #6CC60C",
"_  c #66CA0C",
"`  c #6BCA0C",
"'  c #6FC605",
"]  c #71C70E",
"[  c #70CA0E",
"{  c #65C612",
"}  c #6CC514",
"|  c #64CB14",
" . c #6BCA12",
".. c #6CCB19",
"X. c #63CA19",
"o. c #71C613",
"O. c #72CA19",
"+. c #6EC222",
"@. c #6EC22C",
"#. c #72C124",
"$. c #72C32B",
"%. c #75C030",
"&. c #7BB746",
"*. c #86B13E",
"=. c #FF8123",
"-. c #FF8128",
";. c #E2813E",
":. c #81B542",
">. c #81B841",
",. c #D58D5D",
"<. c #E58744",
"1. c #FF8E46",
"2. c #FF8D4B",
"3. c #F2954C",
"4. c #FC934D",
"5. c #F69B4D",
"6. c #F9984E",
"7. c #FF8E53",
"8. c #EF9654",
"9. c #E79D5E",
"0. c #EB9A5F",
"q. c #EE925F",
"w. c #F39652",
"e. c #FC9453",
"r. c #F59953",
"t. c #FA9A52",
"y. c #F5965D",
"u. c #FA925D",
"i. c #F3995B",
"p. c #DF9C67",
"a. c #CF9B76",
"s. c #D49F77",
"d. c #DB9F73",
"f. c #D79E79",
"g. c #E49C65",
"h. c #EA9B63",
"j. c #E39C6A",
"k. c #EB9B6A",
"l. c #EA9467",
"z. c #F39563",
"x. c #FA9964",
"c. c #F19569",
"v. c #F49B67",
"b. c #E09D70",
"n. c #CFA16F",
"m. c #DEA16A",
"M. c #D3A16C",
"N. c #CFA575",
"B. c #D3A473",
"V. c #DEA373",
"C. c #D5A27A",
"Z. c #D7A579",
"A. c #E5A06B",
"S. c #ECA06B",
"D. c #E3A167",
"F. c #A6FF45",
"G. c #ADFF4D",
"H. c #AEFE45",
"J. c #B0FF44",
"K. c #B1FF4D",
"L. c #A7FF53",
"P. c #AEFF52",
"I. c #AEFE59",
"U. c #B2FF54",
"Y. c #BAFE54",
"T. c #B2FD5B",
"R. c #ADFE63",
"E. c #B5FB63",
"W. c #B8F866",
"Q. c #BAF66A",
"!. c #B7FD6F",
"~. c #B9FB6A",
"^. c #B3F766",
"/. c #B7F671",
"(. c #BAF471",
"). c #BDFA73",
"_. c #BDF979",
"`. c #C0FA70",
"'. c #C1F47E",
"]. c #BDEE85",
"[. c #C6EA85",
"{. c #C9EC84",
"}. c #C6E98E",
"|. c #C9E783",
" X c #C8EC94",
/* pixels */
"/ ) U.P.` [ K.K._ E X O             O +   X `.H._ _ P.G.^ _ U.Y.",
"` [ P.U.( ( U.T.W >.@ & & & & & & # & * & @ {.~.} } I.I. ./ P.U.",
"K.H.}  .P.T.1 4 $ @ g v P P M B M J J M J h @ $ ~.T.4 5 G.H._ | ",
"K.G...} L.E.< 7 @ - c y t r t w w w t t y N - @ |.(.4 1 U.F...X.",
"_ { 2 2 X.@.$ @ j N u r e y y y t r a p e t n f @ $ '.E.} O.> 2 ",
"_ X.2 : ..T $ & K p r r a t 8 J K K s e y y w B & X (.U.] } 2 3 ",
"P.G.` ` F.).X & d p r y e 8 - & & - Y p y q t b # X E ( K.P.{ | ",
"U.K.' [ E.].X & K r y t K k #     # k 8 t t w F & X &.+.T.K._ _ ",
") ` K.Q.X X   & J q t M - @ .       # ; i y w M & X X $ @. .L.G.",
"` ' K.(.X O   @ z L L I = & * & & & & = I K J z #     X Q  .G.K.",
"P.G.` E X     . @ # & = U J K N N B V G - & & #       X _.G./ ^ ",
"L.I.#.>.o . .   . @ @ = L D A 9 9 A C B * @ @ @     . . [.~.) / ",
" .W % X N.a.@ @ Z.D.h.v.2.e.1.4.4.1.4.1.h.A.A.Z.. @ f.V.o $ W.K.",
"[ R X . A.k.& & h.3.6.3.g.h.w.t.t.w.h.0.8.r.3.9.& & h.j.@ X (.K.",
"J.`.X @ D.8.l.k.r.4.e.k.# # h.3.3.g.& & k.t.5.r.0.h.i.g.@ X E } ",
"K.T.$ o M.S.j.k.e.t.6.g.@ . g.5.r.p.@ # l.r.t.8.0.k.j.B.X $ #.` ",
"_ } ~.[.. @ @ & h.e.6.j.@ @ g.5.5.D.@ @ j.r.e.h.& @ @ o :.#.I.L.",
"_ ( G.W.$ X   . B.h.r.h.& * i.1.4.i.& & h.i.k.f.@   X X W  .G.G.",
"K.P._ O.Q.}.X   . # g.y.h.x.m A 0 m x.h.i.0.& .   X 6 < E.G.[ / ",
"K.P.} +.(. XX   . & x.e.q.y.F J K b l.h.e.x.& @   X 6 < E.P.} ..",
"_ } 3 4 X X o @ B.y.V H * @ * * * * @ = F c z.d.@ X X % $.} 3 1 ",
"( #.< 7   @ @ # p.y.V F * @ # & & & # * L V u.b.# @ . X &.T 1 3 ",
"U.!.$ o B.j.k.V.# & z.7.z.l.H J K G c.l.u.z.* & d.g.j.Z.o % $.{ ",
"P./.X @ g.r.r.g.@ @ c.2.7.7.c Z S n 7.7.7.c.# @ h.3.i.p.@ X W ^ ",
") E $ @ A.w.r.g.@ & F C 0 Z 1.e.e.2.S 0 A F # @ g.5.r.g.@ X (.K.",
"` #.$ X B.A.A.f.. # I B B b z.g.D.g.H K J z # . f.g.j.a.X $ W.K.",
"T.U.$.! o @ . .   + # & & # @ @ . @ & * & @ .   @ @ @ o {.E.O.^ ",
"T.U.` #.$ X     # & * #               . # & & # .   X $ ^.G._ _ ",
"^ ` G.P.#.&.X # j P M f #     O       # j P J l # X }.Q.O. .I.P.",
"/ ` G.L.` #.$ @ z J K f # + @ # @ @ @ # k P J h @ $ Q.K.( ( G.U.",
"K.G._ _ K.P.#.*.. & & #   @ ,.<.<.,.@ + # # # @ [.^.o.[ G.P.( ` ",
"Y.K.| ~ P.K.[ E X X       # ;.-.=.;.& O     X X ).G.` / P.K./ _ "
};
