/* XPM */
static char *_b20a41d0c304bc6cb071001843102dcYoH00pqbgHXqn7RB[] = {
/* columns rows colors chars-per-pixel */
"32 32 168 2 ",
"   c #020102",
".  c #0C0100",
"X  c #000B00",
"o  c #080800",
"O  c #010109",
"+  c #130000",
"@  c #1B0000",
"#  c #001500",
"$  c #001900",
"%  c #240000",
"&  c #2B0000",
"*  c #3E0000",
"=  c #420000",
"-  c #2F6E00",
";  c #356E0D",
":  c #227400",
">  c #2A7501",
",  c #267B00",
"<  c #2B7A00",
"1  c #327204",
"2  c #3E631D",
"3  c #416120",
"4  c #DC3F16",
"5  c #ED3A06",
"6  c #E63F0A",
"7  c #EA3C0A",
"8  c #F53604",
"9  c #F93505",
"0  c #F63905",
"q  c #FA3C06",
"w  c #F53609",
"e  c #FC360B",
"r  c #F53A0B",
"t  c #FA3A0C",
"y  c #E33D17",
"u  c #F43912",
"i  c #F93A10",
"p  c #D53E21",
"a  c #BB4D2E",
"s  c #B7522B",
"d  c #BA522C",
"f  c #B94D35",
"g  c #BE4D3B",
"h  c #BA5235",
"j  c #CB4B1D",
"k  c #DF4811",
"l  c #D3431F",
"z  c #DE421B",
"x  c #E6410B",
"c  c #E9410D",
"v  c #E04A0F",
"b  c #F14108",
"n  c #E2411C",
"m  c #CF4322",
"M  c #C74C24",
"N  c #CA4924",
"B  c #D54321",
"V  c #D94422",
"C  c #D54922",
"Z  c #DB4827",
"A  c #D94529",
"S  c #C1512B",
"D  c #C24D33",
"F  c #6EBD26",
"G  c #6FBE2D",
"H  c #72BE26",
"J  c #74BD29",
"K  c #75BD32",
"L  c #7FB23D",
"P  c #66C607",
"I  c #6AC605",
"U  c #65CB06",
"Y  c #6ACA05",
"T  c #66C60A",
"R  c #6CC60C",
"E  c #66CB0B",
"W  c #6BCA0C",
"Q  c #71C50D",
"!  c #65C613",
"~  c #6CC614",
"^  c #65CA14",
"/  c #6BC913",
"(  c #6DC31C",
")  c #67C819",
"_  c #6CC919",
"`  c #70CA13",
"'  c #71C01F",
"]  c #71CB1C",
"[  c #6EC224",
"{  c #6FC22B",
"}  c #72C223",
"|  c #71C32C",
" . c #70C828",
".. c #79CB2B",
"X. c #6BC031",
"o. c #7CB543",
"O. c #7BBA45",
"+. c #80AD36",
"@. c #85B640",
"#. c #FF8C4B",
"$. c #F39148",
"%. c #FD944D",
"&. c #F7994F",
"*. c #FF8950",
"=. c #EF9B53",
"-. c #E39C5F",
";. c #EC9B5C",
":. c #F59553",
">. c #FD9452",
",. c #F59952",
"<. c #FB9A52",
"1. c #F69A5B",
"2. c #FC9A5B",
"3. c #DD9D73",
"4. c #D49E78",
"5. c #D89D7B",
"6. c #E39662",
"7. c #E89762",
"8. c #E49C64",
"9. c #EA9B63",
"0. c #EF966A",
"q. c #E39C6B",
"w. c #EB9C6B",
"e. c #F29663",
"r. c #F19860",
"t. c #E69F71",
"y. c #D3A46A",
"u. c #D5A374",
"i. c #D4A279",
"p. c #D9A37A",
"a. c #E8A065",
"s. c #E6A06F",
"d. c #E1A370",
"f. c #ADFF46",
"g. c #A6FF4C",
"h. c #ACFF4C",
"j. c #B1FF45",
"k. c #B2FF4D",
"l. c #ADFF51",
"z. c #AFFE55",
"x. c #ADFF53",
"c. c #ABFF5A",
"v. c #ADFF5B",
"b. c #B2FF51",
"n. c #B1FF52",
"m. c #B2FD57",
"M. c #B2FF53",
"N. c #B4FF58",
"B. c #B2FF5B",
"V. c #B3F564",
"C. c #B4FD63",
"Z. c #B9F967",
"A. c #BEF66F",
"S. c #B3FA6B",
"D. c #B9FA6B",
"F. c #B3F770",
"G. c #B6F777",
"H. c #BBF573",
"J. c #B9F378",
"K. c #BDF87A",
"L. c #C3F872",
"P. c #D4A281",
"I. c #C6E981",
"U. c #C2EA8C",
"Y. c #CBE989",
"T. c #CCF082",
"R. c #C3F08B",
"E. c #C8F08D",
/* pixels */
"E W k.b.! ^ j.j.Y H X O O O O           X X K.m.! / m.b.Y Y k.M.",
"W R h.b./ / N.m.} L @ & @ % % % % % % % @ . Y.D.( / B.z.` Y h.k.",
"k.b.W W h.c.> 1 # + d p C V B Z B A p V B h @ # D.c.> < z.k./ E ",
"h.h.! / x.S.> 3 + = 4 e t 0 9 9 i e e e e z = @ L.J.- > B.h.] ) ",
"U ^ , , ! F # + h V u e r q q q 0 0 e e e u y S + # L.m./ _ : > ",
"U ^ , , G o.X @ M 7 i e w 0 8 0 0 0 e e t r n D @ X H.k.R ~ , , ",
"h.g./ G # X   @ e.#.7 e t 0 t e w e i r e 4 * +   X | I g.l.! ) ",
"k.M.} o.o + @ % ;.%.v 7 r w 9 e e t u r t C % O O X o.' b.h.E E ",
"W J # o y.9.9.9.,.,.>.#.7 q 0 t e e r r 0 V %     X X # } ^ h.h.",
"/ F # o y.9.9.e.>.>.*.*.b 5 z l C B B C m f %     O . X K / g.b.",
"l.M.} +.. + + & j x x 7 0 n = % % % % % % @ . O .   O X H.h.R U ",
"b.g.W J X O O + f l C C V g @   . + + .     . . .   X # D.k.R W ",
"T / l.H.X O O   @ & % % % @ . . p.8.q.4.. + i.i.+ X U.V.` I h.M.",
"W T x.D.# X   O   . + @ @ + O . -.<.:.d.+ + -.a.+ X H.m.Y I m.m.",
"g.k.R ~ D.U.X O   + 3.a.6.5.. + 8.$.2.q.. + 8.9.+ X K T h.h.P W ",
"h.h.R R k.Z.# X   + 8.>.>.9.% % 9.2.:.w.@ @ ;.9.@ X K W g.k.U E ",
"E T k.h.W ` V.R.X + q.:.>.2.9.8.1.,.2.:.8.-.,.9.@ X H.k.T / h.m.",
"W / h.k.E T m.J.X . P.s.8.;.1.:.&.:.$.>.%.>.9.u.. # H.N.` R l.h.",
"b.h.W W h.B.< ; X   + + + % 8.<.<.>.>.%.v j & o U.G.> > m.j.W Y ",
"M.x.] ~ k.C.- 2 . + + .   . 3.8.-.9.9.e.N s . # S.v.< < m.g./ ^ ",
"E ! , > ~ J # . u.8.8.p.+   + + @ + + @ % + T.C._ / B.m.R ] : , ",
"W / , : ' J X @ e.>.#.e.@ .         @ @ O # V.j.T W l.g.` ] : , ",
"f.f.^ ) h.L.X % N 7 6 M @ O   O   % g D @ X K R k.k.Y Y h.l._ ) ",
"j.h.E / k.H.X % N 6 6 M @   + + + & f a + # | Q b.k.W T k.k.I W ",
"U Y l.x./ K X + 0.>.#.e.+ . 5.w.w.3.% . L [ m.j.Q Q l.b.T R l.b.",
"E E h.b.! | # X u.q.8.p.. + w.%.%.q.+ X O.} h.h.` Q l.l.R / l.l.",
"b.h.` W j.h. .o.o + + .   . 8.&.,.8.+ X X # ..P l.x./ / h.g.W E ",
"M.M.R W j.f.E [ # X   . @ % d.8.8.3.& & % + L [ v.l.! W h.h.W E ",
"Q R l.l.W I x.v.} o.X @ f D & + + & a C B d . $ J ` h.g.Y E f.g.",
"Q / x.x.R W g.l.` ' # + h g %     @ f l B s + $ J T g.f.E W h.h.",
"h.g.E E l.b./ W j.b.| @.+ @     O . @ % % + L { v.h.W W l.h.R W ",
"k.f.E E l.b.W I j.h.E X.X O O O O O O   X X | E l.m.W R x.b.R W "
};
