/* XPM */
static char *_32fe86884344ffbbb517f2e71aebd81X14uE5Vso9ZnYxq0[] = {
/* columns rows colors chars-per-pixel */
"32 32 186 2 ",
"   c #020102",
".  c #0C0000",
"X  c #000B00",
"o  c #090800",
"O  c #030109",
"+  c #140000",
"@  c #1B0000",
"#  c #001300",
"$  c #001800",
"%  c #230000",
"&  c #2B0000",
"*  c #340000",
"=  c #3B0000",
"-  c #400000",
";  c #1E7500",
":  c #1E7800",
">  c #316D02",
",  c #366E0B",
"<  c #2D7301",
"1  c #247B00",
"2  c #297A00",
"3  c #377403",
"4  c #337A00",
"5  c #3B6325",
"6  c #42611D",
"7  c #465D25",
"8  c #436125",
"9  c #DD3F18",
"0  c #EA3C05",
"q  c #EC3B09",
"w  c #F63405",
"e  c #F93506",
"r  c #F43A07",
"t  c #F5360A",
"y  c #FA350B",
"u  c #F53A0C",
"i  c #FB3A0C",
"p  c #FA3B07",
"a  c #FE3710",
"s  c #FF3B11",
"d  c #F33912",
"f  c #B74E2C",
"g  c #B45127",
"h  c #B7502F",
"j  c #B9532D",
"k  c #BC4D32",
"l  c #BB4E3A",
"z  c #B65133",
"x  c #BD5032",
"c  c #BB513C",
"v  c #CE451B",
"b  c #D5421C",
"n  c #D6491E",
"m  c #E44205",
"M  c #E3420B",
"N  c #EC400A",
"B  c #E64112",
"V  c #E2431C",
"C  c #CB4524",
"Z  c #C74B24",
"A  c #CB4B22",
"S  c #C44C2D",
"D  c #C94F2A",
"F  c #C34725",
"G  c #D54523",
"H  c #DC4422",
"J  c #D64920",
"K  c #D04528",
"L  c #DA4629",
"P  c #C34C32",
"I  c #C14E39",
"U  c #C25133",
"Y  c #6CBF19",
"T  c #6FB924",
"R  c #72BF25",
"E  c #73BC2A",
"W  c #73BC30",
"Q  c #7BB43F",
"!  c #67C505",
"~  c #6BC606",
"^  c #66CE07",
"/  c #6BCA06",
"(  c #65C60B",
")  c #6CC60B",
"_  c #65CB0C",
"`  c #6BCA0B",
"'  c #70C707",
"]  c #61D109",
"[  c #6CD00C",
"{  c #65C513",
"}  c #6AC711",
"|  c #66CA13",
" . c #6BCA12",
".. c #67C519",
"X. c #6DC41D",
"o. c #6ACB19",
"O. c #63C91D",
"+. c #71C21D",
"@. c #71CC1C",
"#. c #71C814",
"$. c #6EC324",
"%. c #6CC32E",
"&. c #6DCD21",
"*. c #73C226",
"=. c #74C32C",
"-. c #6EC133",
";. c #71C033",
":. c #7CB449",
">. c #78B84A",
",. c #7EB341",
"<. c #DF823D",
"1. c #FF8225",
"2. c #E2813D",
"3. c #84B444",
"4. c #81B841",
"5. c #D68E5C",
"6. c #D3905B",
"7. c #E48742",
"8. c #FF8E4B",
"9. c #FF924B",
"0. c #FF8F52",
"q. c #E09A5F",
"w. c #ED985F",
"e. c #E5965E",
"r. c #F59450",
"t. c #FF9152",
"y. c #F29A52",
"u. c #DE9E61",
"i. c #DA9D6D",
"p. c #CE9D74",
"a. c #D19976",
"s. c #DD9D73",
"d. c #D59F7B",
"f. c #D99E79",
"g. c #EE9665",
"h. c #E39C63",
"j. c #EA9B64",
"k. c #E19768",
"l. c #E49D6A",
"z. c #EB9B6A",
"x. c #F89667",
"c. c #F19B65",
"v. c #F6976B",
"b. c #F2986B",
"n. c #E39D74",
"m. c #CFA76C",
"M. c #D3A76A",
"N. c #D3A373",
"B. c #D5A27B",
"V. c #DAA47A",
"C. c #DBA87D",
"Z. c #E6A065",
"A. c #EFA068",
"S. c #E6A16A",
"D. c #E5A17E",
"F. c #ACFF46",
"G. c #A5FF4B",
"H. c #ADFF4D",
"J. c #B1FF47",
"K. c #B1FF4D",
"L. c #B8FF4F",
"P. c #ACFF52",
"I. c #AEFE56",
"U. c #ADFE52",
"Y. c #ADFE59",
"T. c #B0FF51",
"R. c #B5FE53",
"E. c #B2FF55",
"W. c #B2FF52",
"Q. c #B1FF59",
"!. c #B2FD5C",
"~. c #B4FA66",
"^. c #B9FA65",
"/. c #B5FA6B",
"(. c #BAFB6C",
"). c #BBF66A",
"_. c #B6F671",
"`. c #BAF574",
"'. c #B7F975",
"]. c #BDFA75",
"[. c #BBF179",
"{. c #C5EA84",
"}. c #C2EC8E",
"|. c #CBE98A",
" X c #CDE985",
".X c #CAF08D",
/* pixels */
"^ ( E.T.^ ^ T.E._ %.#                   O X [.T./ / K.T.) / K.L.",
" . .H.K.~ ) !.~.;.,.o % % % % % % % % % % + |./.) ) Q.I.#./ F.F.",
"H.H.) ) F.Q.< , # + g J b J G L J b J v J j + # (.T.< 4 I.T. .| ",
"U.U.o. .F.!.> 7 @ - V p e i w t y i u p w b = . {._.< < Q.G.&.O.",
"_ | : 1 } *.# + k V d e i y y i e e d t i d H k + # '.Y.} @.; 1 ",
"_ o.1 : o.E # % G e e i a y e w i t u u t e y G @ X '.H.) } 2 2 ",
"U.U... .F.(.X % G e a a y a p s t i u y i i y L % X ;._ H.H.} ..",
"R.U.`  .^.{.X % G t y y a y r u r u y u e i e G % X >.$.I.H.` / ",
"' ' P./.# X   % J e i p r r r r r r i e t i e H % X X $ $.` R.E.",
"' / P.'.X O   @ k b u p 0 0 m m m N q q i u V k @     X E ` K.E.",
"T.H._ W X       @ = V 0 8.9.9.8.8.8.9.8.0 V - @ .     X ].H._ _ ",
"K.E.=.,.X +       % k C c.h.j.j.h.Z.u.j.C k %       + o |.(.{ ] ",
"/ *.$ X N.a.+ O O . @ & @ + @ + + @ + + % @ .     + V.V.. # /.K.",
"/ R X + j.c.% + O O O   O   O   O O     O O     . @ j.z.+ X `.T.",
"F.].X + z.r.h.B.+           O O O O           . B.q.y.h.+ X E  .",
"H.~.X . i.A.h.B..               O           O + d.S.h.M.X # $.` ",
"` +.). X. + + .       O                         . @ + o ,.$.H.T.",
" . .H.^.# X X   + @ % % . O       O X   + @ + +     X # %.` K.K.",
"P.G.^ ( /.}.X + N.j.A z @             @ l D g.V.+ X 5 3 Y.J.) ) ",
"G.G.| o./. X+ % i.w.Z U & + + + @ @ @ & I Z g.s.& + 7 3 !.F.@...",
"`  .1 > # + f P & + % & n.j.l.l.h.j.l.n.& % + & k c . # W O.1 1 ",
"! X.3 6 . & P P * @   @ x.8.8.9.9.8.0.b.@ O @ * S U %   :.-.; 1 ",
"R.(.# o a.D.& = D f @ % C N m m m 9 B F % @ k S * % S.N.o # =.| ",
"K._.X . i.l.@ % k z @ % C N m m M B N Z % @ l k @ + h.j.@ X R ^ ",
"` W X + M.q.@ . + @ . + b.8.t.t.9.9.8.v.@ O @ @   + h.l.+ X ].K.",
") =.# o M.a..         + B.l.k.l.l.h.j.f.+ O O   X . C.N.o # ).T.",
"J.T.R 4.X .           . . + @ @ + + + + .         o . o .X/.X._ ",
"J.F.! +.# X X . @ % % @ .             . % % % +     X # /.G.| _ ",
" . .F.U.*.3.X @ c G G I @   O   O O   @ U G K c @ X }.(.{ ` H.L.",
"_ ( R.F.` *.# + h K L l @ . . + + + . @ k G K z + # /.U.^ ` J.L.",
"I.T.~ ` H.U.=.3.+ % @ @ . + 6.7.7.5.+ . % % % + |.~.#.) H.H.` ) ",
"E.H.` ^ T.H.' E # O     O @ <.1.1.2.%     O   X `.T.~ / I.H.` / "
};
