/* XPM */
static char *_ab395c2f54044efeda0f079ed43c6deCr5f7QcIqtYJ2m9J[] = {
/* columns rows colors chars-per-pixel */
"32 32 158 2 ",
"   c #020201",
".  c #0B0000",
"X  c #000B00",
"o  c #000008",
"O  c #120000",
"+  c #190000",
"@  c #001300",
"#  c #001900",
"$  c #2B6906",
"%  c #336907",
"&  c #336D0B",
"*  c #247500",
"=  c #2B7501",
"-  c #257A00",
";  c #2C7A00",
":  c #33760C",
">  c #346D14",
",  c #326322",
"<  c #754F0E",
"1  c #76500F",
"2  c #774D15",
"3  c #7C4C14",
"4  c #744C1C",
"5  c #7B4E19",
"6  c #755216",
"7  c #7B5115",
"8  c #75511A",
"9  c #7B511A",
"0  c #6F4F23",
"q  c #674F2D",
"w  c #6F4F28",
"e  c #744E23",
"r  c #7A4E24",
"t  c #714E28",
"y  c #6D5224",
"u  c #66552D",
"i  c #6D522B",
"p  c #655B28",
"a  c #745225",
"s  c #7D5223",
"d  c #71522A",
"f  c #7A5529",
"g  c #745828",
"h  c #7A582A",
"j  c #665134",
"k  c #685431",
"l  c #755435",
"z  c #795630",
"x  c #834D14",
"c  c #825214",
"v  c #83501B",
"b  c #6DBF1F",
"n  c #6CBF22",
"m  c #6EBB2B",
"M  c #70BD25",
"N  c #73BB2D",
"B  c #78BD2E",
"V  c #6FBC30",
"C  c #75BE32",
"Z  c #78BF31",
"A  c #71BF38",
"S  c #5FCF07",
"D  c #5FCC0E",
"F  c #66C603",
"G  c #6BC606",
"H  c #65CB06",
"J  c #6ACA06",
"K  c #66C60C",
"L  c #6BC60C",
"P  c #66CB0A",
"I  c #6BCA0C",
"U  c #71C70D",
"Y  c #70CB0C",
"T  c #65D008",
"R  c #67C514",
"E  c #6CC513",
"W  c #66CA13",
"Q  c #6CCA12",
"!  c #69C61D",
"~  c #6DCF1A",
"^  c #71C414",
"/  c #72C913",
"(  c #70CA1A",
")  c #6CC324",
"_  c #67C926",
"`  c #72C127",
"'  c #73C12C",
"]  c #74C032",
"[  c #76B741",
"{  c #79B444",
"}  c #7AB844",
"|  c #7CB64A",
" . c #7DBA49",
".. c #E39D5F",
"X. c #EC9B5A",
"o. c #DD9E6C",
"O. c #D29F74",
"+. c #DD9D73",
"@. c #D79F7A",
"#. c #E69C63",
"$. c #E39C68",
"%. c #DDA26E",
"&. c #D9A172",
"*. c #D7A079",
"=. c #D9A279",
"-. c #E1A06A",
";. c #ACFF46",
":. c #A7FF4A",
">. c #ADFF4D",
",. c #B1FF46",
"<. c #B2FF4D",
"1. c #ADFF52",
"2. c #ADFE5A",
"3. c #B2FF53",
"4. c #B3FE5B",
"5. c #AFFF60",
"6. c #B6F763",
"7. c #B4FB63",
"8. c #B5F36C",
"9. c #B6F26E",
"0. c #B2F46C",
"q. c #B5F46F",
"w. c #B6F46C",
"e. c #B9F76C",
"r. c #B6FE6A",
"t. c #B1F86E",
"y. c #B5FA6A",
"u. c #BAFB69",
"i. c #BBFA6C",
"p. c #B7F570",
"a. c #B5F771",
"s. c #BAF273",
"d. c #B9F770",
"f. c #B9F772",
"g. c #B9F675",
"h. c #BCF674",
"j. c #B7FB74",
"k. c #B6F974",
"l. c #BBF972",
"z. c #BCF970",
"x. c #BCFA75",
"c. c #BEFB70",
"v. c #BBF07C",
"b. c #BCF37C",
"n. c #BCF978",
"m. c #C1FA77",
"M. c #C2FD71",
"N. c #BEEA88",
"B. c #BEF284",
"V. c #BCF081",
"C. c #C5EC85",
"Z. c #C6EC89",
"A. c #C7EF8C",
"S. c #C3EF8A",
"D. c #C4F286",
"F. c #CAF187",
"G. c #C3F18F",
"H. c #C5EE90",
/* pixels */
"H I 3.3.P P ;.<.G W 1.4.P H <.<.P P 1.3.L K 1.>.Q Q 3.3.I G >.>.",
"J G 3.1.W K 4.4.m m n.g.m ] q.l.N m x.9.C ] 0.r.b Q 7.2./ G >.3.",
">.1.Q K 1.4.* : # @ X X @ X X X X @ X X X X X @ 7.4.= = 3.:.Q W ",
">.1.) V m.v.> , X   . . . . . . . . . . . .   X N.b.& % s.6.) _ ",
"H ) @ X X X X     . i h e f 0 0 d d g g 0 u   X X X X X X @ $ * ",
"P N X     X     . + t e a e a g y d y y i i . .     X X   X & - ",
"3.z.X X A.Z.X O =.=.O     . . . . . . O   + &.O.O X { | X @ ] W ",
"3.q.X X d.z.X + $.#.+   . . . O . O O . . + o.%.O X C V X X ] W ",
"J ' @ X B B X O $.X.$.&.e s +.+.r d d y y e 3 f . X j.a.X X a.1.",
"H ) # @ A | X O &.X.X.#.5 x #.#.x 2 9 9 9 7 7 y . X G.B.@ @ u.<.",
"1.2.` [ @ X X . r x x x v 7 x c 3 s 5 9 3 7 < y .   X X D.6.U J ",
"3.>.Q ` @ X X X i a 4 9 v 7 7 1 6 4 5 3 c 7 a p X X X X i.<.Y I ",
"F G 1.1.M N e.F.X + f 5 3 2 3 6 6 6 9 9 7 e O X { N m.M.E K 1.>.",
"P P :.<.G Q :.6.@ X i t t h 5 7 6 8 a d i u X # ` I ;.>.Q Q 2.1.",
"<.;.I L <.>.~ ! y.C.X . . . f < 7 4 O . . X  .n 3.;.I Q >.3.K S ",
"<.3.G I <.3.K R >.6.@ X X X u e f i X X X # ) P >.<.H G >.:.P P ",
"L L 1.<.U U 3.1.G ^ r.k.] |   . .   C.e.B N 1.:.G P <.;.I F >.>.",
"Q Q >.1.L K 4.1./ E y.a.C | X   o X Z.i.B M 7.1.G L 3.4.H I ;.3.",
":.1.I L 3.2.* ; 2.d.@ X X X     o   X X X @ $ ; 4.4.= ; 4.1.( E ",
":.1.E E 1.2.- ; 2.b.X   .     o o       o X > = 3.3.= = 2.2.! _ ",
"P R ; * E Q 4.3.E Z X         o         o X V.4.E / 4.4.W W - - ",
"F Q ; ; ~ G ;.3.M  .X . O O .   .   .     X H.e.^ L >.<.H W - - ",
"1.1.R Q 1.;.I b @ X X . *.&.4 y d a a i     X @ q.3.Y L <.>.R W ",
"1.1.G W 1.1.G C @     + o...9 2 7 3 v e . X   X j.:.I I <.3.Q H ",
"P L >.1.K W 3.d.X     O e x 2 7 4 r 3 d       @ ] P >.1.L U ;.>.",
"R Q >.>.Q L <.e.@ X     j d d i l l f q   X X @ ) H >.1.U U :.>.",
"1.<.G G <.>.G Q 6.G.X     . . . .   . . . X  .) 2.1.W I <.>.L H ",
">.:.P Y ;.<.Q P >.6.@ X X X X X X X X X X @ ) L 1.>.K L >.>.Q W ",
"J I <.,.Y J <.1.I / 6.e.' M c.9.B N e.w.C ' 3.>.L Q >.1.Q E >.3.",
"J J ,.,.J J 3.1.L J ;.<.J J <.;.Y I <.>.P K >.<.G G >.1.E Q 1.<.",
"1.>.Q I ;.:.P W 3.3.G I >.1.Q K ;.3.K L 2.1.J J <.<.I I >.>.L P ",
"4.3.L F >.>.D W 3.3.J F 3.1.W L 3.>.L W 1.>.T J <.3.H F 3.3.P S "
};
