/* XPM */
static char *a690b9378c924cb1c6963a0efc22ec48s8sLI5Is4rxtp7Gx[] = {
/* columns rows colors chars-per-pixel */
"32 32 157 2 ",
"   c #040500",
".  c #0B0300",
"X  c #000C00",
"o  c #130000",
"O  c #1A0000",
"+  c #001400",
"@  c #001900",
"#  c #230000",
"$  c #290000",
"%  c #3D0000",
"&  c #1D7B00",
"*  c #2E6F00",
"=  c #257600",
"-  c #2C7500",
";  c #247B00",
":  c #2A7A00",
">  c #327700",
",  c #317800",
"<  c #DF3F1B",
"1  c #EB3E04",
"2  c #E53F0A",
"3  c #EB3E0A",
"4  c #F73505",
"5  c #FB3505",
"6  c #F53A05",
"7  c #FA3A05",
"8  c #F5360A",
"9  c #FB360A",
"0  c #F5390B",
"q  c #FA3A0C",
"w  c #E43D10",
"e  c #ED3A12",
"r  c #E63F1B",
"t  c #EB3A19",
"y  c #F53712",
"u  c #FF3514",
"i  c #F63912",
"p  c #FB3C10",
"a  c #E23C24",
"s  c #B54F29",
"d  c #BA4F2E",
"f  c #B5522B",
"g  c #BB4D36",
"h  c #BA5330",
"j  c #DD4214",
"k  c #DF4D12",
"l  c #D3441F",
"z  c #DB411E",
"x  c #E54203",
"c  c #EB4205",
"v  c #E5420C",
"b  c #EA410C",
"n  c #F04007",
"m  c #F3420E",
"M  c #ED4312",
"N  c #E44A14",
"B  c #C84A24",
"V  c #D64623",
"C  c #D94425",
"Z  c #D9432B",
"A  c #E04222",
"S  c #71BD1F",
"D  c #6FBE24",
"F  c #6FBD29",
"G  c #72BD25",
"H  c #74BD2C",
"J  c #77BE32",
"K  c #7BBE30",
"L  c #7CB33E",
"P  c #5FCD0A",
"I  c #64C606",
"U  c #6CC707",
"Y  c #65CB05",
"T  c #6AC905",
"R  c #66C60B",
"E  c #6BC50C",
"W  c #65CA0C",
"Q  c #6BCA0B",
"!  c #70C60A",
"~  c #71C909",
"^  c #60D105",
"/  c #66C613",
"(  c #6CC613",
")  c #66CB14",
"_  c #6CCA12",
"`  c #66C61B",
"'  c #6CC61A",
"]  c #6BC91B",
"[  c #72C713",
"{  c #71CA13",
"}  c #6DC423",
"|  c #6DCA21",
" . c #6EC329",
".. c #74C226",
"X. c #75C12A",
"o. c #6CC531",
"O. c #74C636",
"+. c #7DBA45",
"@. c #88B33F",
"#. c #81B342",
"$. c #FF8547",
"%. c #FE8C44",
"&. c #FF854A",
"*. c #FF8D4B",
"=. c #F49747",
"-. c #FF9343",
";. c #F5964B",
":. c #FD934D",
">. c #F59A4C",
",. c #F9994D",
"<. c #FF8E51",
"1. c #E59D5E",
"2. c #EB995D",
"3. c #F49652",
"4. c #FB9553",
"5. c #F59A51",
"6. c #FC9953",
"7. c #FA975C",
"8. c #EE9762",
"9. c #E49B65",
"0. c #EA9C64",
"q. c #E49D6A",
"w. c #F49865",
"e. c #F39869",
"r. c #D2A36F",
"t. c #D4A471",
"y. c #D8A474",
"u. c #D5A67C",
"i. c #E6A26A",
"p. c #A6FF47",
"a. c #ACFF46",
"s. c #A5FF4B",
"d. c #ACFF4C",
"f. c #B3FF47",
"g. c #B2FF4D",
"h. c #B8FF4D",
"j. c #ACFF52",
"k. c #AEFF5B",
"l. c #B2FF52",
"z. c #B8FF55",
"x. c #B1FE5B",
"c. c #B6F566",
"v. c #BBF764",
"b. c #B3FC65",
"n. c #BAFD64",
"m. c #B5F66B",
"M. c #BBF66B",
"N. c #B5FA6C",
"B. c #BBFB6B",
"V. c #B4F670",
"C. c #BAF673",
"Z. c #B7F973",
"A. c #BAF972",
"S. c #C3ED87",
"D. c #CBEA83",
"F. c #CCEA89",
"G. c #C7F088",
/* pixels */
"^ Y h.h.W W d.d.Q Y l.l.I ) j.d.) W j.f.Y Y z.z.! U d.s.) R f.h.",
"W Q d.g.R / x.j._ _ k.k._ R l.d.W _ l.d.Q _ x.x.! E j.k./ _ d.g.",
"j.j.W U l.n.- : x.j.- > k.d.E U f.a.U R d.j.- > x.x.: - b.j._ Y ",
"j.j.) ) l.x.- : x.x.> - A.Z.H K M.A.H X.x.k.- - x.k.- - k.x.) ) ",
"_ ` : = ' { k.j.W Q x.C.+ X X X X   X @ } ) k.x.Q ) b.n.( ` ; ; ",
"U ( : = ' ~ d.k.} F V.F.o # # # $ $ # . L  .Z.m.) R j.z.Q ) ; ; ",
"h.d.` ` j.g.Q S @ X X O d C l C Z C C h . + X + N.j._ E d.d.) ) ",
"f.l.W ) d.j.S @.o # # % C 0 b b v 3 8 r % # # o F.c.' Q p.d.Q R ",
"U ~ d.s.) } @ o f V C z e b $.:.4.&.1 6 j l V d O + v.f.W T d.l.",
"~ I d.s.P  .+ O V 7 9 7 i v :.=.;.:.c 7 6 4 9 V $ X M.l.R Y l.g.",
"l.l.Y Y d.m.X # z 5 7 q y w 4.4.,.:.2 9 q q 0 V # X X.W j.j.U W ",
"l.d.Y R n.D.o % r 5 7 0 8 i &.*.*.&.M 8 y 0 q C % o L  .k.j.~ W ",
"[ E j.B.+ o g a y 5 9 q q 0 m v v b 0 9 q q y t A s . @ D { d.l.",
"E [ d.M.X # Z u 9 9 0 6 9 q 4 8 6 3 p 8 8 8 i i 8 C # X J Q d.z.",
"l.f.Q H X # Z 0 7 6 6 7 4 9 9 q q 4 9 9 7 q 7 6 q V # X V.d._ R ",
"g.p.Q G X # B v x x 1 7 7 8 p 8 4 q 5 5 7 6 1 c x B # X A.d.W W ",
"W Q d.M.X O e.:.-.%.2 q q 8 q 9 9 9 5 5 9 3 *.:.*.w.O X H _ p.d.",
"Y W p.B.X o 9.,.,.%.k 2 v 2 3 3 3 c 1 b 3 N &.6.4.9.o X H U j.d.",
"z.g.E H X o 9.4.4.6.4.*.4.*.*.<.:.*.:.4.<.<.,.>.>.q.o X C.l.R U ",
"l.d.' O.@ X y.8.7.4.3.3.,.,.:.4.4.3.>.>.>.,.>.5.9.u.  + M.l.' ] ",
"Q ] & & o.+.  # 0.4.3.4.4.4.>.;.4.4.3.,.>.>.>.1.# . F.n.[ _ ; - ",
"U ] & & ) H X o 9.4.4.6.;.;.>.5.6.7.;.=.,.;.=.9.o X m.d.T / ; = ",
"f.d.| ] g.M.X o q.;.=.>.6.6.,.=.;.5.6.,.,.=.,.0.o X H R d.j.` ` ",
"f.f./ ( l.n.+ . t.9.i.0.3.,.;.,.5.5.>.3.2.0.0.r.. +  .Y d.s._ ) ",
"Y Y j.j.E ' N.S.. O o O 0.;.6.,.4.3.;.0.# O o   #...k.d.Y T d.j.",
"Y Y j.j._ Q d.b.+ X X   r.9.9.0.q.9.i.t.. X X + G Q d.d.W U d.d.",
"g.d._ Q d.a.T E M.C.J +.X o o o o o o   G.A.H X.j.d.Q ~ f.g.R W ",
"l.d.E ~ a.f.U Q d.d.U ..@ X X X X X X + b.d.U E d.d.U ~ d.l.Q Y ",
"W _ l.d.[ ( d.f.! ~ a.d. .X.M.B.H K M.n.` Q d.f.W Q a.f.{ ( d.d.",
"W Q d.j._ ( j.d.! ! a.g.R Q d.f.Q Q d.g.Q Q l.d.W R d.d.( ( j.g.",
"g.d.Q Q s.j.) ) g.g.Y W s.d.{ _ d.d.Q _ d.j.E ! j.s.W W d.g.E W ",
"z.l.R Y j.s.W ) l.g.Q W d.j.E E g.l.) R x.d.~ Q j.j.P P z.z.W T "
};
