/* XPM */
static char *c7655706317747f6f465d5551b903437OVpbtHIDF4dU24GK[] = {
/* columns rows colors chars-per-pixel */
"32 32 182 2 ",
"   c #020202",
".  c #0C0100",
"X  c #000B00",
"o  c #02020A",
"O  c #140000",
"+  c #1B0000",
"@  c #001400",
"#  c #001900",
"$  c #230000",
"%  c #2B0000",
"&  c #300000",
"*  c #3E0000",
"=  c #420000",
"-  c #385F1C",
";  c #1E7600",
":  c #2C6E00",
">  c #306F04",
",  c #267600",
"<  c #2C7401",
"1  c #237C00",
"2  c #2B7A00",
"3  c #327202",
"4  c #42611D",
"5  c #DC3F1C",
"6  c #F42F04",
"7  c #ED370D",
"8  c #E63E0B",
"9  c #ED3C0C",
"0  c #F43406",
"q  c #FA3707",
"w  c #F43A03",
"e  c #F93D07",
"r  c #F4370A",
"t  c #FA360B",
"y  c #F53A0B",
"u  c #FA3A0B",
"i  c #FB3711",
"p  c #F13D12",
"a  c #FF3B11",
"s  c #E03F22",
"d  c #BA4E2D",
"f  c #B6512C",
"g  c #B8532B",
"h  c #BC5326",
"j  c #B64D30",
"k  c #BA4D34",
"l  c #BD4E39",
"z  c #BB5233",
"x  c #B25430",
"c  c #DC4300",
"v  c #CF4713",
"b  c #C74E17",
"n  c #CD471B",
"m  c #CB4B1A",
"M  c #D2441E",
"N  c #DE4219",
"B  c #E8410D",
"V  c #E24407",
"C  c #E04411",
"Z  c #E4421C",
"A  c #CF4320",
"S  c #CC4A22",
"D  c #CA4A29",
"F  c #C64A26",
"G  c #D44422",
"H  c #D54A24",
"J  c #D94925",
"K  c #D54529",
"L  c #DA4628",
"P  c #DB4425",
"I  c #C1512C",
"U  c #C24E35",
"Y  c #E34324",
"T  c #6CBD22",
"R  c #71BD27",
"E  c #73BD2E",
"W  c #72BD32",
"Q  c #7ABD30",
"!  c #66C605",
"~  c #6BC606",
"^  c #65CC05",
"/  c #6BC906",
"(  c #67C30B",
")  c #6CC60B",
"_  c #66CA0D",
"`  c #6BCA0C",
"'  c #70CA0C",
"]  c #6CD00E",
"[  c #66C615",
"{  c #6BC512",
"}  c #66CA13",
"|  c #6BCA13",
" . c #69C71B",
".. c #6ECB1B",
"X. c #63CA1B",
"o. c #71C513",
"O. c #72CB12",
"+. c #70C619",
"@. c #74CB1A",
"#. c #67D013",
"$. c #6FC12D",
"%. c #71C124",
"&. c #73C42B",
"*. c #77B64B",
"=. c #79B347",
"-. c #84B545",
";. c #FF8B43",
":. c #FF874F",
">. c #FF8E4C",
",. c #F3944C",
"<. c #FC944D",
"1. c #FE984E",
"2. c #F5984B",
"3. c #FF8752",
"4. c #FF8C52",
"5. c #EE9657",
"6. c #ED975C",
"7. c #E69C5A",
"8. c #E7995C",
"9. c #F69654",
"0. c #FC9652",
"q. c #F59852",
"w. c #FB9A54",
"e. c #F29558",
"r. c #F5995A",
"t. c #E8A15F",
"y. c #DE9C60",
"u. c #D69E71",
"i. c #DB9E74",
"p. c #DA9F7B",
"a. c #D49D7E",
"s. c #E69766",
"d. c #E89762",
"f. c #E39C63",
"g. c #EA9B64",
"h. c #E59C6D",
"j. c #E99D6A",
"k. c #F69763",
"l. c #F29569",
"z. c #E19E73",
"x. c #D5A46E",
"c. c #D5A173",
"v. c #DAA475",
"b. c #D6A179",
"n. c #DDA17A",
"m. c #E8A065",
"M. c #EBA26B",
"N. c #A5FE45",
"B. c #ACFF46",
"V. c #ADFF4C",
"C. c #B0FF47",
"Z. c #B1FF4D",
"A. c #A7FF51",
"S. c #ADFF52",
"D. c #ACFF59",
"F. c #B1FF55",
"G. c #B2FF52",
"H. c #B4FE5D",
"J. c #ABFF61",
"K. c #B4F660",
"L. c #B4FA64",
"P. c #BAF867",
"I. c #B7F669",
"U. c #BAF66D",
"Y. c #B5FA6A",
"T. c #BBFA6B",
"R. c #BAF662",
"E. c #B4F577",
"W. c #BEF075",
"Q. c #BAFA74",
"!. c #B7F578",
"~. c #BFF579",
"^. c #BBFA7A",
"/. c #C3E67E",
"(. c #C1F575",
"). c #CCE587",
"_. c #C7EB87",
"`. c #CCEB85",
"'. c #CAE78A",
"]. c #C3EB8C",
"[. c #CCEB8D",
"{. c #D0EF87",
/* pixels */
"^ ~ G.Z._ ] B.V.^ $.X   .             o   X (.Z./ ^ Z.B.| { V.G.",
"` ` V.G.) ( S.H.T -.O % $ $ $ $ $ $ $ + + + ).P.{ ~ G.G.| } Z.Z.",
"V.V._ _ V.H., 3 @ O g K G M J H L K K K H g O @ T.S.2 < D.S.) ' ",
"S.S.| | S.L.: 4 + = 5 y y r u q r t i 0 u N * + /.Q.< 2 D.V.{ +.",
"! } 1 1  .E @ . k Y p t y r r r i t t q u 7 Y j + @ Q.D.} [ 2 , ",
"^ | 1 , ..W @ + l s 7 y u y u q 0 t q u t p 9 D + X ].Y.[ } 1 1 ",
"V.V. ...S.^.X   + * N e y y r e u w e 0 a y 3.l.+     @ Y.S.{ | ",
"G.S.) o.P.].X     $ H u r y 0 e w w u q 7 C >.g.+ O + . _.Y.o.~ ",
"{ ) G.T.@ X       $ H t t t u r u 0 u r 3.4.0.q.t.7.g.x.  @ T.G.",
"} { V.W.X     X   + k G L P A K M N y B 3.4.>.<.7.t.g.v.. @ T.G.",
"G.V.' Q X   .     . + + $ $ $ $ $ * Z q 9 B c b % + + . `.Y.{ _ ",
"V.N.' &.@ X   . O .     . O O O   + l P K H n x + o   X U.V.} } ",
"^ ] V.S.&.*.X . b.b.. . a.h.g.z.. . + $ $ $ $ +   o   X E _ S.A.",
"^ ! S.V.} W X . h.f.O O h.9.w.s.+   O + + .         X # %.) S.S.",
"B.C.) ' D.^.X + h.f.O . f.w.,.h.. . p.8.M.u..   o   =.%.S.G.~ / ",
"V.V.~ o.A.!.X + j.8.+ + m.,.w.f.$ $ 8.<.1.s.+   X # %.~ G.Z.' / ",
"^ ^ G.G.| W X + g.w.7.g.e.9.r.e.j.s.r.0.<.g.+ X =.E G.V._ | Z.G.",
"^ ` G.G.) E @ . c.q.<.<.w.9.0.w.<.r.s.j.j.b.. X E ` G.S.| _ Z.G.",
"G.V.| ~ Z.H.> -   & v c <.2.2.<.1.g.+ . . .   @ (.H.< 2 D.V.` _ ",
"S.S.[ | B.G.2 < @ . h m 6.f.j.g.s.c..   . . . . ).W.< 2 S.B... .",
"` | 1 1  .o.G.J.$.-.O + + . + O O .   . b.f.f.c.O X Q.S.) O.; 1 ",
"^ | ; ; +.O.N.S._ W X . + + . o       + r.;.0.l.+ X T.B.~ o.1 1 ",
"Z.V.} #.G.Z.O.) G.U.X + k U +       o + S 9 B F + X E ~ Z.Z.[ X.",
"G.V.^ _ Z.G.) ) C.R.@ + z U % + + .   + S 9 B F $ X W _ Z.G.` _ ",
"_ _ V.S._ _ V.V.) { U.).O $ z.g.h.b.O + k.>.<.g.+ X E.A.| ~ Z.Z.",
"_ ~ V.V.} _ V.Z.~ @.I.].X . f.1.0.s.+ O u.m.t.x.. @ Q.S._ | V.Z.",
"G.S.| ) Z.Z.) ) Z.H.@ X   . f.,.q.f.+   . O O   ].T.{ ~ S.S.~ / ",
"G.D.) O.B.C.' o.L.{.O + + % v.M.j.z.$ +     X @ T.V.' / S.S.` / ",
"_ ` Z.V./ / B.P.@ O f M H k & + + % I z +   ].(.o.) B.Z.( { Z.Z.",
"~ ~ Z.Z./ _ Z.T.@ + j H M j $     + k g + @ T.B.) ' Z.Z.{ | V.G.",
"S.V.' ) S.S.| | Y.'.+ $ $ +   o     + O _.Y.o./ Z.V._ _ V.V.O.^ ",
"S.V.) ) G.S._ } S.~.X . .   o o o   o X !.S.^ ^ Z.Z.` _ S.Z.! ^ "
};
